<?xml version="1.0" standalone="no"?>
<svg xmlns="http://www.w3.org/2000/svg" width="1120" height="536.4000015258789"><g transform="translate(70,20)"><g class="x axis" transform="translate(0,400)" fill="none" font-size="10" font-family="sans-serif" text-anchor="middle"><path class="domain" stroke="#000" d="M0.5,6V0.5H1000.5V6"/><g class="tick" opacity="1" transform="translate(134.1463414634146,0)"><line stroke="#000" y2="6"/><text fill="#000" y="9" dy="-0.5em" style="text-anchor: end;" dx="-.8em" transform="rotate(-90)">East (n=6)</text></g><g class="tick" opacity="1" transform="translate(378.04878048780483,0)"><line stroke="#000" y2="6"/><text fill="#000" y="9" dy="-0.5em" style="text-anchor: end;" dx="-.8em" transform="rotate(-90)">North (n=19)</text></g><g class="tick" opacity="1" transform="translate(621.9512195121952,0)"><line stroke="#000" y2="6"/><text fill="#000" y="9" dy="-0.5em" style="text-anchor: end;" dx="-.8em" transform="rotate(-90)">South (n=8)</text></g><g class="tick" opacity="1" transform="translate(865.8536585365853,0)"><line stroke="#000" y2="6"/><text fill="#000" y="9" dy="-0.5em" style="text-anchor: end;" dx="-.8em" transform="rotate(-90)">West (n=10)</text></g></g><g class="y axis" fill="none" font-size="10" font-family="sans-serif" text-anchor="end"><path class="domain" stroke="#000" d="M-6,400.5H0.5V0.5H-6"/><g class="tick" opacity="1" transform="translate(0,400.5)"><line stroke="#000" x2="-6"/><text fill="#000" x="-9" dy="0.32em">0.66</text></g><g class="tick" opacity="1" transform="translate(0,356.0555555555555)"><line stroke="#000" x2="-6"/><text fill="#000" x="-9" dy="0.32em">0.68</text></g><g class="tick" opacity="1" transform="translate(0,311.61111111111126)"><line stroke="#000" x2="-6"/><text fill="#000" x="-9" dy="0.32em">0.70</text></g><g class="tick" opacity="1" transform="translate(0,267.16666666666674)"><line stroke="#000" x2="-6"/><text fill="#000" x="-9" dy="0.32em">0.72</text></g><g class="tick" opacity="1" transform="translate(0,222.72222222222226)"><line stroke="#000" x2="-6"/><text fill="#000" x="-9" dy="0.32em">0.74</text></g><g class="tick" opacity="1" transform="translate(0,178.27777777777777)"><line stroke="#000" x2="-6"/><text fill="#000" x="-9" dy="0.32em">0.76</text></g><g class="tick" opacity="1" transform="translate(0,133.83333333333326)"><line stroke="#000" x2="-6"/><text fill="#000" x="-9" dy="0.32em">0.78</text></g><g class="tick" opacity="1" transform="translate(0,89.38888888888874)"><line stroke="#000" x2="-6"/><text fill="#000" x="-9" dy="0.32em">0.80</text></g><g class="tick" opacity="1" transform="translate(0,44.944444444444514)"><line stroke="#000" x2="-6"/><text fill="#000" x="-9" dy="0.32em">0.82</text></g><g class="tick" opacity="1" transform="translate(0,0.5)"><line stroke="#000" x2="-6"/><text fill="#000" x="-9" dy="0.32em">0.84</text></g></g><text class="x label" text-anchor="middle" style="font: 12px sans-serif;" transform="translate(500,506.4000015258789)">Alignment</text><text class="y label" text-anchor="middle" style="font: 12px sans-serif;" transform="translate(-50,200)rotate(-90)">pielou_evenness</text><g class="outlier" transform="translate(134.1463414634146,0)"/><line class="center" x1="134.1463414634146" y1="291.7721388888889" x2="134.1463414634146" y2="143.23123311111112" stroke-dasharray="2,2" stroke-width="1" stroke="black"/><line class="center" x1="378.04878048780483" y1="280.6456497777777" x2="378.04878048780483" y2="104.00285155555554" stroke-dasharray="2,2" stroke-width="1" stroke="black"/><line class="center" x1="621.9512195121952" y1="313.0191535555556" x2="621.9512195121952" y2="15.892784000000063" stroke-dasharray="2,2" stroke-width="1" stroke="black"/><line class="center" x1="865.8536585365853" y1="278.1140915555555" x2="865.8536585365853" y2="13.569442222222278" stroke-dasharray="2,2" stroke-width="1" stroke="black"/><rect class="box" x="24.390243902438954" y="161.1754870000002" width="219.51219512195127" height="97.89625777777746" fill="white" stroke-width="1" stroke="black"/><rect class="box" x="268.29268292682923" y="158.4843601111111" width="219.51219512195127" height="56.801588666666674" fill="white" stroke-width="1" stroke="black"/><rect class="box" x="512.1951219512196" y="58.3810734999999" width="219.51219512195127" height="167.3528208333333" fill="white" stroke-width="1" stroke="black"/><rect class="box" x="756.0975609756097" y="87.93587727777788" width="219.51219512195127" height="139.60895116666663" fill="white" stroke-width="1" stroke="black"/><line class="median" x1="24.390243902438954" y1="166.31421288888882" x2="243.90243902439022" y2="166.31421288888882" stroke-width="1" stroke="black"/><line class="median" x1="268.29268292682923" y1="176.84034222222232" x2="487.8048780487805" y2="176.84034222222232" stroke-width="1" stroke="black"/><line class="median" x1="512.1951219512196" y1="196.80381500000013" x2="731.7073170731708" y2="196.80381500000013" stroke-width="1" stroke="black"/><line class="median" x1="756.0975609756097" y1="185.49286355555546" x2="975.6097560975609" y2="185.49286355555546" stroke-width="1" stroke="black"/><g class="whisker" transform="translate(79.26829268292677,0)"><line class="median" x1="0" y1="291.7721388888889" x2="109.75609756097563" y2="291.7721388888889" stroke-width="1" stroke="black"/><line class="median" x1="0" y1="143.23123311111112" x2="109.75609756097563" y2="143.23123311111112" stroke-width="1" stroke="black"/></g><g class="whisker" transform="translate(323.17073170731703,0)"><line class="median" x1="0" y1="280.6456497777777" x2="109.75609756097563" y2="280.6456497777777" stroke-width="1" stroke="black"/><line class="median" x1="0" y1="104.00285155555554" x2="109.75609756097563" y2="104.00285155555554" stroke-width="1" stroke="black"/></g><g class="whisker" transform="translate(567.0731707317074,0)"><line class="median" x1="0" y1="313.0191535555556" x2="109.75609756097563" y2="313.0191535555556" stroke-width="1" stroke="black"/><line class="median" x1="0" y1="15.892784000000063" x2="109.75609756097563" y2="15.892784000000063" stroke-width="1" stroke="black"/></g><g class="whisker" transform="translate(810.9756097560975,0)"><line class="median" x1="0" y1="278.1140915555555" x2="109.75609756097563" y2="278.1140915555555" stroke-width="1" stroke="black"/><line class="median" x1="0" y1="13.569442222222278" x2="109.75609756097563" y2="13.569442222222278" stroke-width="1" stroke="black"/></g><g class="outlier" transform="translate(378.04878048780483,0)"><circle r="4" stroke-width="1" stroke="black" stroke-opacity="0.3" fill="black" fill-opacity="0.33" cx="0" cy="368.12187577777786"/><circle r="4" stroke-width="1" stroke="black" stroke-opacity="0.3" fill="black" fill-opacity="0.33" cx="0" cy="309.3926473333334"/><circle r="4" stroke-width="1" stroke="black" stroke-opacity="0.3" fill="black" fill-opacity="0.33" cx="0" cy="47.640210000000025"/></g><g class="outlier" transform="translate(621.9512195121952,0)"/><g class="outlier" transform="translate(865.8536585365853,0)"/></g></svg>