<?xml version="1.0" standalone="no"?>
<svg xmlns="http://www.w3.org/2000/svg" width="1120" height="550.1999969482422"><g transform="translate(70,20)"><g class="x axis" transform="translate(0,400)" fill="none" font-size="10" font-family="sans-serif" text-anchor="middle"><path class="domain" stroke="#000" d="M0.5,6V0.5H1000.5V6"/><g class="tick" opacity="1" transform="translate(67.90123456790117,0)"><line stroke="#000" y2="6"/><text fill="#000" y="9" dy="-0.5em" style="text-anchor: end;" dx="-.8em" transform="rotate(-90)">Ceiba (n=9)</text></g><g class="tick" opacity="1" transform="translate(191.35802469135797,0)"><line stroke="#000" y2="6"/><text fill="#000" y="9" dy="-0.5em" style="text-anchor: end;" dx="-.8em" transform="rotate(-90)">Culebra (n=6)</text></g><g class="tick" opacity="1" transform="translate(314.8148148148148,0)"><line stroke="#000" y2="6"/><text fill="#000" y="9" dy="-0.5em" style="text-anchor: end;" dx="-.8em" transform="rotate(-90)">Guanica (n=3)</text></g><g class="tick" opacity="1" transform="translate(438.27160493827154,0)"><line stroke="#000" y2="6"/><text fill="#000" y="9" dy="-0.5em" style="text-anchor: end;" dx="-.8em" transform="rotate(-90)">Guayama (n=2)</text></g><g class="tick" opacity="1" transform="translate(561.7283950617284,0)"><line stroke="#000" y2="6"/><text fill="#000" y="9" dy="-0.5em" style="text-anchor: end;" dx="-.8em" transform="rotate(-90)">Isabella (n=5)</text></g><g class="tick" opacity="1" transform="translate(685.1851851851851,0)"><line stroke="#000" y2="6"/><text fill="#000" y="9" dy="-0.5em" style="text-anchor: end;" dx="-.8em" transform="rotate(-90)">Luquillo (n=5)</text></g><g class="tick" opacity="1" transform="translate(808.6419753086419,0)"><line stroke="#000" y2="6"/><text fill="#000" y="9" dy="-0.5em" style="text-anchor: end;" dx="-.8em" transform="rotate(-90)">Ponce (n=3)</text></g><g class="tick" opacity="1" transform="translate(932.0987654320987,0)"><line stroke="#000" y2="6"/><text fill="#000" y="9" dy="-0.5em" style="text-anchor: end;" dx="-.8em" transform="rotate(-90)">Rincon (n=10)</text></g></g><g class="y axis" fill="none" font-size="10" font-family="sans-serif" text-anchor="end"><path class="domain" stroke="#000" d="M-6,400.5H0.5V0.5H-6"/><g class="tick" opacity="1" transform="translate(0,400.5)"><line stroke="#000" x2="-6"/><text fill="#000" x="-9" dy="0.32em">0.66</text></g><g class="tick" opacity="1" transform="translate(0,356.0555555555555)"><line stroke="#000" x2="-6"/><text fill="#000" x="-9" dy="0.32em">0.68</text></g><g class="tick" opacity="1" transform="translate(0,311.61111111111126)"><line stroke="#000" x2="-6"/><text fill="#000" x="-9" dy="0.32em">0.70</text></g><g class="tick" opacity="1" transform="translate(0,267.16666666666674)"><line stroke="#000" x2="-6"/><text fill="#000" x="-9" dy="0.32em">0.72</text></g><g class="tick" opacity="1" transform="translate(0,222.72222222222226)"><line stroke="#000" x2="-6"/><text fill="#000" x="-9" dy="0.32em">0.74</text></g><g class="tick" opacity="1" transform="translate(0,178.27777777777777)"><line stroke="#000" x2="-6"/><text fill="#000" x="-9" dy="0.32em">0.76</text></g><g class="tick" opacity="1" transform="translate(0,133.83333333333326)"><line stroke="#000" x2="-6"/><text fill="#000" x="-9" dy="0.32em">0.78</text></g><g class="tick" opacity="1" transform="translate(0,89.38888888888874)"><line stroke="#000" x2="-6"/><text fill="#000" x="-9" dy="0.32em">0.80</text></g><g class="tick" opacity="1" transform="translate(0,44.944444444444514)"><line stroke="#000" x2="-6"/><text fill="#000" x="-9" dy="0.32em">0.82</text></g><g class="tick" opacity="1" transform="translate(0,0.5)"><line stroke="#000" x2="-6"/><text fill="#000" x="-9" dy="0.32em">0.84</text></g></g><text class="x label" text-anchor="middle" style="font: 12px sans-serif;" transform="translate(500,520.1999969482422)">Location</text><text class="y label" text-anchor="middle" style="font: 12px sans-serif;" transform="translate(-50,200)rotate(-90)">pielou_evenness</text><g class="outlier" transform="translate(67.90123456790117,0)"><circle r="4" stroke-width="1" stroke="black" stroke-opacity="0.3" fill="black" fill-opacity="0.33" cx="0" cy="368.12187577777786"/><circle r="4" stroke-width="1" stroke="black" stroke-opacity="0.3" fill="black" fill-opacity="0.33" cx="0" cy="47.640210000000025"/></g><g class="outlier" transform="translate(191.35802469135797,0)"/><line class="center" x1="67.90123456790117" y1="258.86508955555564" x2="67.90123456790117" y2="130.76549799999987" stroke-dasharray="2,2" stroke-width="1" stroke="black"/><line class="center" x1="191.35802469135797" y1="291.7721388888889" x2="191.35802469135797" y2="143.23123311111112" stroke-dasharray="2,2" stroke-width="1" stroke="black"/><line class="center" x1="314.8148148148148" y1="313.0191535555556" x2="314.8148148148148" y2="48.257621999999856" stroke-dasharray="2,2" stroke-width="1" stroke="black"/><line class="center" x1="438.27160493827154" y1="211.8955715555555" x2="438.27160493827154" y2="15.892784000000063" stroke-dasharray="2,2" stroke-width="1" stroke="black"/><line class="center" x1="561.7283950617284" y1="202.0941220000001" x2="561.7283950617284" y2="104.00285155555554" stroke-dasharray="2,2" stroke-width="1" stroke="black"/><line class="center" x1="685.1851851851851" y1="309.3926473333334" x2="685.1851851851851" y2="163.2620560000001" stroke-dasharray="2,2" stroke-width="1" stroke="black"/><line class="center" x1="808.6419753086419" y1="267.24886266666675" x2="808.6419753086419" y2="61.75555733333323" stroke-dasharray="2,2" stroke-width="1" stroke="black"/><line class="center" x1="932.0987654320987" y1="278.1140915555555" x2="932.0987654320987" y2="13.569442222222278" stroke-dasharray="2,2" stroke-width="1" stroke="black"/><g class="outlier" transform="translate(314.8148148148148,0)"/><g class="outlier" transform="translate(438.27160493827154,0)"/><g class="outlier" transform="translate(561.7283950617284,0)"/><g class="outlier" transform="translate(685.1851851851851,0)"/><g class="outlier" transform="translate(808.6419753086419,0)"/><g class="outlier" transform="translate(932.0987654320987,0)"/><rect class="box" x="12.345679012345613" y="157.99648244444447" width="111.11111111111111" height="53.86550977777787" fill="white" stroke-width="1" stroke="black"/><rect class="box" x="135.80246913580243" y="161.1754870000002" width="111.11111111111111" height="97.89625777777746" fill="white" stroke-width="1" stroke="black"/><rect class="box" x="259.25925925925924" y="115.57021611111116" width="111.11111111111111" height="132.38076577777764" fill="white" stroke-width="1" stroke="black"/><rect class="box" x="382.716049382716" y="64.89348088888892" width="111.11111111111111" height="98.00139377777774" fill="white" stroke-width="1" stroke="black"/><rect class="box" x="506.1728395061728" y="135.37841733333318" width="111.11111111111111" height="41.46192488888914" fill="white" stroke-width="1" stroke="black"/><rect class="box" x="629.6296296296296" y="184.06434355555552" width="111.11111111111111" height="96.58130622222217" fill="white" stroke-width="1" stroke="black"/><rect class="box" x="753.0864197530864" y="136.2401885555555" width="111.11111111111111" height="102.74665266666688" fill="white" stroke-width="1" stroke="black"/><rect class="box" x="876.5432098765432" y="87.93587727777788" width="111.11111111111111" height="139.60895116666663" fill="white" stroke-width="1" stroke="black"/><line class="median" x1="12.345679012345613" y1="163.80672511111115" x2="123.45679012345673" y2="163.80672511111115" stroke-width="1" stroke="black"/><line class="median" x1="135.80246913580243" y1="166.31421288888882" x2="246.91358024691354" y2="166.31421288888882" stroke-width="1" stroke="black"/><line class="median" x1="259.25925925925924" y1="182.88281022222225" x2="370.3703703703703" y2="182.88281022222225" stroke-width="1" stroke="black"/><line class="median" x1="382.716049382716" y1="113.89417777777777" x2="493.82716049382714" y2="113.89417777777777" stroke-width="1" stroke="black"/><line class="median" x1="506.1728395061728" y1="176.69454244444444" x2="617.283950617284" y2="176.69454244444444" stroke-width="1" stroke="black"/><line class="median" x1="629.6296296296296" y1="218.70990533333347" x2="740.7407407407406" y2="218.70990533333347" stroke-width="1" stroke="black"/><line class="median" x1="753.0864197530864" y1="210.72481977777775" x2="864.1975308641975" y2="210.72481977777775" stroke-width="1" stroke="black"/><line class="median" x1="876.5432098765432" y1="185.49286355555546" x2="987.6543209876543" y2="185.49286355555546" stroke-width="1" stroke="black"/><g class="whisker" transform="translate(40.12345679012339,0)"><line class="median" x1="0" y1="258.86508955555564" x2="55.55555555555556" y2="258.86508955555564" stroke-width="1" stroke="black"/><line class="median" x1="0" y1="130.76549799999987" x2="55.55555555555556" y2="130.76549799999987" stroke-width="1" stroke="black"/></g><g class="whisker" transform="translate(163.5802469135802,0)"><line class="median" x1="0" y1="291.7721388888889" x2="55.55555555555556" y2="291.7721388888889" stroke-width="1" stroke="black"/><line class="median" x1="0" y1="143.23123311111112" x2="55.55555555555556" y2="143.23123311111112" stroke-width="1" stroke="black"/></g><g class="whisker" transform="translate(287.037037037037,0)"><line class="median" x1="0" y1="313.0191535555556" x2="55.55555555555556" y2="313.0191535555556" stroke-width="1" stroke="black"/><line class="median" x1="0" y1="48.257621999999856" x2="55.55555555555556" y2="48.257621999999856" stroke-width="1" stroke="black"/></g><g class="whisker" transform="translate(410.49382716049377,0)"><line class="median" x1="0" y1="211.8955715555555" x2="55.55555555555556" y2="211.8955715555555" stroke-width="1" stroke="black"/><line class="median" x1="0" y1="15.892784000000063" x2="55.55555555555556" y2="15.892784000000063" stroke-width="1" stroke="black"/></g><g class="whisker" transform="translate(533.9506172839506,0)"><line class="median" x1="0" y1="202.0941220000001" x2="55.55555555555556" y2="202.0941220000001" stroke-width="1" stroke="black"/><line class="median" x1="0" y1="104.00285155555554" x2="55.55555555555556" y2="104.00285155555554" stroke-width="1" stroke="black"/></g><g class="whisker" transform="translate(657.4074074074074,0)"><line class="median" x1="0" y1="309.3926473333334" x2="55.55555555555556" y2="309.3926473333334" stroke-width="1" stroke="black"/><line class="median" x1="0" y1="163.2620560000001" x2="55.55555555555556" y2="163.2620560000001" stroke-width="1" stroke="black"/></g><g class="whisker" transform="translate(780.8641975308642,0)"><line class="median" x1="0" y1="267.24886266666675" x2="55.55555555555556" y2="267.24886266666675" stroke-width="1" stroke="black"/><line class="median" x1="0" y1="61.75555733333323" x2="55.55555555555556" y2="61.75555733333323" stroke-width="1" stroke="black"/></g><g class="whisker" transform="translate(904.320987654321,0)"><line class="median" x1="0" y1="278.1140915555555" x2="55.55555555555556" y2="278.1140915555555" stroke-width="1" stroke="black"/><line class="median" x1="0" y1="13.569442222222278" x2="55.55555555555556" y2="13.569442222222278" stroke-width="1" stroke="black"/></g></g></svg>