<?xml version="1.0" standalone="no"?>
<svg xmlns="http://www.w3.org/2000/svg" width="1120" height="633.0166625976562"><g transform="translate(70,20)"><g class="x axis" transform="translate(0,400)" fill="none" font-size="10" font-family="sans-serif" text-anchor="middle"><path class="domain" stroke="#000" d="M0.5,6V0.5H1000.5V6"/><g class="tick" opacity="1" transform="translate(60.439560439560374,0)"><line stroke="#000" y2="6"/><text fill="#000" y="9" dy="-0.5em" style="text-anchor: end;" dx="-.8em" transform="rotate(-90)">17.929801, -66.158912 (n=2)</text></g><g class="tick" opacity="1" transform="translate(170.32967032967028,0)"><line stroke="#000" y2="6"/><text fill="#000" y="9" dy="-0.5em" style="text-anchor: end;" dx="-.8em" transform="rotate(-90)">17.934784, -66.957102 (n=3)</text></g><g class="tick" opacity="1" transform="translate(280.21978021978015,0)"><line stroke="#000" y2="6"/><text fill="#000" y="9" dy="-0.5em" style="text-anchor: end;" dx="-.8em" transform="rotate(-90)">17.964016, -66.609962 (n=2)</text></g><g class="tick" opacity="1" transform="translate(390.10989010989005,0)"><line stroke="#000" y2="6"/><text fill="#000" y="9" dy="-0.5em" style="text-anchor: end;" dx="-.8em" transform="rotate(-90)">17.9724027, -66.6179076 (n=1)</text></g><g class="tick" opacity="1" transform="translate(499.99999999999994,0)"><line stroke="#000" y2="6"/><text fill="#000" y="9" dy="-0.5em" style="text-anchor: end;" dx="-.8em" transform="rotate(-90)">18.218831, -65.604282 (n=9)</text></g><g class="tick" opacity="1" transform="translate(609.8901098901099,0)"><line stroke="#000" y2="6"/><text fill="#000" y="9" dy="-0.5em" style="text-anchor: end;" dx="-.8em" transform="rotate(-90)">18.302451, -65.309386 (n=6)</text></g><g class="tick" opacity="1" transform="translate(719.7802197802198,0)"><line stroke="#000" y2="6"/><text fill="#000" y="9" dy="-0.5em" style="text-anchor: end;" dx="-.8em" transform="rotate(-90)">18.343114, -67.260138 (n=10)</text></g><g class="tick" opacity="1" transform="translate(829.6703296703297,0)"><line stroke="#000" y2="6"/><text fill="#000" y="9" dy="-0.5em" style="text-anchor: end;" dx="-.8em" transform="rotate(-90)">18.387573, -65.719616 (n=5)</text></g><g class="tick" opacity="1" transform="translate(939.5604395604396,0)"><line stroke="#000" y2="6"/><text fill="#000" y="9" dy="-0.5em" style="text-anchor: end;" dx="-.8em" transform="rotate(-90)">18.515768, -67.100173 (n=5)</text></g></g><g class="y axis" fill="none" font-size="10" font-family="sans-serif" text-anchor="end"><path class="domain" stroke="#000" d="M-6,400.5H0.5V0.5H-6"/><g class="tick" opacity="1" transform="translate(0,400.5)"><line stroke="#000" x2="-6"/><text fill="#000" x="-9" dy="0.32em">0.66</text></g><g class="tick" opacity="1" transform="translate(0,356.0555555555555)"><line stroke="#000" x2="-6"/><text fill="#000" x="-9" dy="0.32em">0.68</text></g><g class="tick" opacity="1" transform="translate(0,311.61111111111126)"><line stroke="#000" x2="-6"/><text fill="#000" x="-9" dy="0.32em">0.70</text></g><g class="tick" opacity="1" transform="translate(0,267.16666666666674)"><line stroke="#000" x2="-6"/><text fill="#000" x="-9" dy="0.32em">0.72</text></g><g class="tick" opacity="1" transform="translate(0,222.72222222222226)"><line stroke="#000" x2="-6"/><text fill="#000" x="-9" dy="0.32em">0.74</text></g><g class="tick" opacity="1" transform="translate(0,178.27777777777777)"><line stroke="#000" x2="-6"/><text fill="#000" x="-9" dy="0.32em">0.76</text></g><g class="tick" opacity="1" transform="translate(0,133.83333333333326)"><line stroke="#000" x2="-6"/><text fill="#000" x="-9" dy="0.32em">0.78</text></g><g class="tick" opacity="1" transform="translate(0,89.38888888888874)"><line stroke="#000" x2="-6"/><text fill="#000" x="-9" dy="0.32em">0.80</text></g><g class="tick" opacity="1" transform="translate(0,44.944444444444514)"><line stroke="#000" x2="-6"/><text fill="#000" x="-9" dy="0.32em">0.82</text></g><g class="tick" opacity="1" transform="translate(0,0.5)"><line stroke="#000" x2="-6"/><text fill="#000" x="-9" dy="0.32em">0.84</text></g></g><text class="x label" text-anchor="middle" style="font: 12px sans-serif;" transform="translate(500,603.0166625976562)">Latitude_Longitude</text><text class="y label" text-anchor="middle" style="font: 12px sans-serif;" transform="translate(-50,200)rotate(-90)">pielou_evenness</text><g class="outlier" transform="translate(170.32967032967028,0)"/><g class="outlier" transform="translate(280.21978021978015,0)"/><g class="outlier" transform="translate(390.10989010989005,0)"/><g class="outlier" transform="translate(499.99999999999994,0)"><circle r="4" stroke-width="1" stroke="black" stroke-opacity="0.3" fill="black" fill-opacity="0.33" cx="0" cy="368.12187577777786"/><circle r="4" stroke-width="1" stroke="black" stroke-opacity="0.3" fill="black" fill-opacity="0.33" cx="0" cy="47.640210000000025"/></g><g class="outlier" transform="translate(60.439560439560374,0)"/><line class="center" x1="280.21978021978015" y1="267.24886266666675" x2="280.21978021978015" y2="210.72481977777775" stroke-dasharray="2,2" stroke-width="1" stroke="black"/><line class="center" x1="390.10989010989005" y1="61.75555733333323" x2="390.10989010989005" y2="61.75555733333323" stroke-dasharray="2,2" stroke-width="1" stroke="black"/><line class="center" x1="499.99999999999994" y1="258.86508955555564" x2="499.99999999999994" y2="130.76549799999987" stroke-dasharray="2,2" stroke-width="1" stroke="black"/><line class="center" x1="609.8901098901099" y1="291.7721388888889" x2="609.8901098901099" y2="143.23123311111112" stroke-dasharray="2,2" stroke-width="1" stroke="black"/><line class="center" x1="170.32967032967028" y1="313.0191535555556" x2="170.32967032967028" y2="48.257621999999856" stroke-dasharray="2,2" stroke-width="1" stroke="black"/><line class="center" x1="60.439560439560374" y1="211.8955715555555" x2="60.439560439560374" y2="15.892784000000063" stroke-dasharray="2,2" stroke-width="1" stroke="black"/><line class="center" x1="939.5604395604396" y1="202.0941220000001" x2="939.5604395604396" y2="104.00285155555554" stroke-dasharray="2,2" stroke-width="1" stroke="black"/><line class="center" x1="829.6703296703297" y1="309.3926473333334" x2="829.6703296703297" y2="163.2620560000001" stroke-dasharray="2,2" stroke-width="1" stroke="black"/><line class="center" x1="719.7802197802198" y1="278.1140915555555" x2="719.7802197802198" y2="13.569442222222278" stroke-dasharray="2,2" stroke-width="1" stroke="black"/><rect class="box" x="230.76923076923072" y="224.85583050000005" width="98.9010989010989" height="28.2620214444444" fill="white" stroke-width="1" stroke="black"/><rect class="box" x="340.6593406593406" y="61.75555733333323" width="98.9010989010989" height="0" fill="white" stroke-width="1" stroke="black"/><rect class="box" x="450.5494505494505" y="157.99648244444447" width="98.9010989010989" height="53.86550977777787" fill="white" stroke-width="1" stroke="black"/><rect class="box" x="560.4395604395604" y="161.1754870000002" width="98.9010989010989" height="97.89625777777746" fill="white" stroke-width="1" stroke="black"/><rect class="box" x="120.87912087912082" y="115.57021611111116" width="98.9010989010989" height="132.38076577777764" fill="white" stroke-width="1" stroke="black"/><rect class="box" x="10.989010989010922" y="64.89348088888892" width="98.9010989010989" height="98.00139377777774" fill="white" stroke-width="1" stroke="black"/><rect class="box" x="890.1098901098901" y="135.37841733333318" width="98.9010989010989" height="41.46192488888914" fill="white" stroke-width="1" stroke="black"/><rect class="box" x="780.2197802197802" y="184.06434355555552" width="98.9010989010989" height="96.58130622222217" fill="white" stroke-width="1" stroke="black"/><rect class="box" x="670.3296703296703" y="87.93587727777788" width="98.9010989010989" height="139.60895116666663" fill="white" stroke-width="1" stroke="black"/><line class="median" x1="230.76923076923072" y1="238.98684122222238" x2="329.67032967032964" y2="238.98684122222238" stroke-width="1" stroke="black"/><line class="median" x1="340.6593406593406" y1="61.75555733333323" x2="439.56043956043953" y2="61.75555733333323" stroke-width="1" stroke="black"/><line class="median" x1="450.5494505494505" y1="163.80672511111115" x2="549.4505494505494" y2="163.80672511111115" stroke-width="1" stroke="black"/><line class="median" x1="560.4395604395604" y1="166.31421288888882" x2="659.3406593406593" y2="166.31421288888882" stroke-width="1" stroke="black"/><line class="median" x1="120.87912087912082" y1="182.88281022222225" x2="219.78021978021974" y2="182.88281022222225" stroke-width="1" stroke="black"/><line class="median" x1="10.989010989010922" y1="113.89417777777777" x2="109.89010989010983" y2="113.89417777777777" stroke-width="1" stroke="black"/><line class="median" x1="890.1098901098901" y1="176.69454244444444" x2="989.010989010989" y2="176.69454244444444" stroke-width="1" stroke="black"/><line class="median" x1="780.2197802197802" y1="218.70990533333347" x2="879.1208791208791" y2="218.70990533333347" stroke-width="1" stroke="black"/><line class="median" x1="670.3296703296703" y1="185.49286355555546" x2="769.2307692307692" y2="185.49286355555546" stroke-width="1" stroke="black"/><g class="whisker" transform="translate(255.49450549450543,0)"><line class="median" x1="0" y1="267.24886266666675" x2="49.45054945054945" y2="267.24886266666675" stroke-width="1" stroke="black"/><line class="median" x1="0" y1="210.72481977777775" x2="49.45054945054945" y2="210.72481977777775" stroke-width="1" stroke="black"/></g><g class="whisker" transform="translate(365.38461538461536,0)"><line class="median" x1="0" y1="61.75555733333323" x2="49.45054945054945" y2="61.75555733333323" stroke-width="1" stroke="black"/><line class="median" x1="0" y1="61.75555733333323" x2="49.45054945054945" y2="61.75555733333323" stroke-width="1" stroke="black"/></g><g class="whisker" transform="translate(475.27472527472526,0)"><line class="median" x1="0" y1="258.86508955555564" x2="49.45054945054945" y2="258.86508955555564" stroke-width="1" stroke="black"/><line class="median" x1="0" y1="130.76549799999987" x2="49.45054945054945" y2="130.76549799999987" stroke-width="1" stroke="black"/></g><g class="whisker" transform="translate(585.1648351648352,0)"><line class="median" x1="0" y1="291.7721388888889" x2="49.45054945054945" y2="291.7721388888889" stroke-width="1" stroke="black"/><line class="median" x1="0" y1="143.23123311111112" x2="49.45054945054945" y2="143.23123311111112" stroke-width="1" stroke="black"/></g><g class="whisker" transform="translate(145.60439560439553,0)"><line class="median" x1="0" y1="313.0191535555556" x2="49.45054945054945" y2="313.0191535555556" stroke-width="1" stroke="black"/><line class="median" x1="0" y1="48.257621999999856" x2="49.45054945054945" y2="48.257621999999856" stroke-width="1" stroke="black"/></g><g class="whisker" transform="translate(35.71428571428565,0)"><line class="median" x1="0" y1="211.8955715555555" x2="49.45054945054945" y2="211.8955715555555" stroke-width="1" stroke="black"/><line class="median" x1="0" y1="15.892784000000063" x2="49.45054945054945" y2="15.892784000000063" stroke-width="1" stroke="black"/></g><g class="whisker" transform="translate(914.8351648351648,0)"><line class="median" x1="0" y1="202.0941220000001" x2="49.45054945054945" y2="202.0941220000001" stroke-width="1" stroke="black"/><line class="median" x1="0" y1="104.00285155555554" x2="49.45054945054945" y2="104.00285155555554" stroke-width="1" stroke="black"/></g><g class="whisker" transform="translate(804.945054945055,0)"><line class="median" x1="0" y1="309.3926473333334" x2="49.45054945054945" y2="309.3926473333334" stroke-width="1" stroke="black"/><line class="median" x1="0" y1="163.2620560000001" x2="49.45054945054945" y2="163.2620560000001" stroke-width="1" stroke="black"/></g><g class="whisker" transform="translate(695.054945054945,0)"><line class="median" x1="0" y1="278.1140915555555" x2="49.45054945054945" y2="278.1140915555555" stroke-width="1" stroke="black"/><line class="median" x1="0" y1="13.569442222222278" x2="49.45054945054945" y2="13.569442222222278" stroke-width="1" stroke="black"/></g><g class="outlier" transform="translate(609.8901098901099,0)"/><g class="outlier" transform="translate(719.7802197802198,0)"/><g class="outlier" transform="translate(829.6703296703297,0)"/><g class="outlier" transform="translate(939.5604395604396,0)"/></g></svg>