<?xml version="1.0" standalone="no"?>
<svg xmlns="http://www.w3.org/2000/svg" width="1120" height="575.3833312988281"><g transform="translate(70,20)"><g class="x axis" transform="translate(0,400)" fill="none" font-size="10" font-family="sans-serif" text-anchor="middle"><path class="domain" stroke="#000" d="M0.5,6V0.5H1000.5V6"/><g class="tick" opacity="1" transform="translate(90.16393442622952,0)"><line stroke="#000" y2="6"/><text fill="#000" y="9" dy="-0.5em" style="text-anchor: end;" dx="-.8em" transform="rotate(-90)">FourPointFive (n=1)</text></g><g class="tick" opacity="1" transform="translate(254.09836065573768,0)"><line stroke="#000" y2="6"/><text fill="#000" y="9" dy="-0.5em" style="text-anchor: end;" dx="-.8em" transform="rotate(-90)">OnePointFive (n=3)</text></g><g class="tick" opacity="1" transform="translate(418.03278688524586,0)"><line stroke="#000" y2="6"/><text fill="#000" y="9" dy="-0.5em" style="text-anchor: end;" dx="-.8em" transform="rotate(-90)">Three (n=16)</text></g><g class="tick" opacity="1" transform="translate(581.967213114754,0)"><line stroke="#000" y2="6"/><text fill="#000" y="9" dy="-0.5em" style="text-anchor: end;" dx="-.8em" transform="rotate(-90)">ThreePointFive (n=2)</text></g><g class="tick" opacity="1" transform="translate(745.9016393442622,0)"><line stroke="#000" y2="6"/><text fill="#000" y="9" dy="-0.5em" style="text-anchor: end;" dx="-.8em" transform="rotate(-90)">Two (n=6)</text></g><g class="tick" opacity="1" transform="translate(909.8360655737704,0)"><line stroke="#000" y2="6"/><text fill="#000" y="9" dy="-0.5em" style="text-anchor: end;" dx="-.8em" transform="rotate(-90)">TwoPointFive (n=15)</text></g></g><g class="y axis" fill="none" font-size="10" font-family="sans-serif" text-anchor="end"><path class="domain" stroke="#000" d="M-6,400.5H0.5V0.5H-6"/><g class="tick" opacity="1" transform="translate(0,400.5)"><line stroke="#000" x2="-6"/><text fill="#000" x="-9" dy="0.32em">0.66</text></g><g class="tick" opacity="1" transform="translate(0,356.0555555555555)"><line stroke="#000" x2="-6"/><text fill="#000" x="-9" dy="0.32em">0.68</text></g><g class="tick" opacity="1" transform="translate(0,311.61111111111126)"><line stroke="#000" x2="-6"/><text fill="#000" x="-9" dy="0.32em">0.70</text></g><g class="tick" opacity="1" transform="translate(0,267.16666666666674)"><line stroke="#000" x2="-6"/><text fill="#000" x="-9" dy="0.32em">0.72</text></g><g class="tick" opacity="1" transform="translate(0,222.72222222222226)"><line stroke="#000" x2="-6"/><text fill="#000" x="-9" dy="0.32em">0.74</text></g><g class="tick" opacity="1" transform="translate(0,178.27777777777777)"><line stroke="#000" x2="-6"/><text fill="#000" x="-9" dy="0.32em">0.76</text></g><g class="tick" opacity="1" transform="translate(0,133.83333333333326)"><line stroke="#000" x2="-6"/><text fill="#000" x="-9" dy="0.32em">0.78</text></g><g class="tick" opacity="1" transform="translate(0,89.38888888888874)"><line stroke="#000" x2="-6"/><text fill="#000" x="-9" dy="0.32em">0.80</text></g><g class="tick" opacity="1" transform="translate(0,44.944444444444514)"><line stroke="#000" x2="-6"/><text fill="#000" x="-9" dy="0.32em">0.82</text></g><g class="tick" opacity="1" transform="translate(0,0.5)"><line stroke="#000" x2="-6"/><text fill="#000" x="-9" dy="0.32em">0.84</text></g></g><text class="x label" text-anchor="middle" style="font: 12px sans-serif;" transform="translate(500,545.3833312988281)">Size</text><text class="y label" text-anchor="middle" style="font: 12px sans-serif;" transform="translate(-50,200)rotate(-90)">pielou_evenness</text><line class="center" x1="90.16393442622952" y1="135.37841733333318" x2="90.16393442622952" y2="135.37841733333318" stroke-dasharray="2,2" stroke-width="1" stroke="black"/><line class="center" x1="254.09836065573768" y1="211.8955715555555" x2="254.09836065573768" y2="182.88281022222225" stroke-dasharray="2,2" stroke-width="1" stroke="black"/><line class="center" x1="418.03278688524586" y1="291.7721388888889" x2="418.03278688524586" y2="48.257621999999856" stroke-dasharray="2,2" stroke-width="1" stroke="black"/><line class="center" x1="581.967213114754" y1="171.4255877777777" x2="581.967213114754" y2="161.20283800000013" stroke-dasharray="2,2" stroke-width="1" stroke="black"/><line class="center" x1="745.9016393442622" y1="368.12187577777786" x2="745.9016393442622" y2="61.75555733333323" stroke-dasharray="2,2" stroke-width="1" stroke="black"/><line class="center" x1="909.8360655737704" y1="309.3926473333334" x2="909.8360655737704" y2="15.892784000000063" stroke-dasharray="2,2" stroke-width="1" stroke="black"/><g class="outlier" transform="translate(90.16393442622952,0)"/><g class="outlier" transform="translate(254.09836065573768,0)"/><g class="outlier" transform="translate(418.03278688524586,0)"><circle r="4" stroke-width="1" stroke="black" stroke-opacity="0.3" fill="black" fill-opacity="0.33" cx="0" cy="13.569442222222278"/></g><g class="outlier" transform="translate(581.967213114754,0)"/><g class="outlier" transform="translate(745.9016393442622,0)"/><g class="outlier" transform="translate(909.8360655737704,0)"/><rect class="box" x="16.39344262295083" y="135.37841733333318" width="147.54098360655738" height="0" fill="white" stroke-width="1" stroke="black"/><rect class="box" x="180.327868852459" y="192.4884661111113" width="147.54098360655738" height="14.506380666666388" fill="white" stroke-width="1" stroke="black"/><rect class="box" x="344.2622950819672" y="156.68258577777777" width="147.54098360655738" height="72.48003172222235" fill="white" stroke-width="1" stroke="black"/><rect class="box" x="508.19672131147536" y="163.75852544444456" width="147.54098360655738" height="5.11137488888869" fill="white" stroke-width="1" stroke="black"/><rect class="box" x="672.1311475409835" y="153.42023194444434" width="147.54098360655738" height="148.15634888888897" fill="white" stroke-width="1" stroke="black"/><rect class="box" x="836.0655737704917" y="93.76085233333333" width="147.54098360655738" height="129.6014787777779" fill="white" stroke-width="1" stroke="black"/><line class="median" x1="16.39344262295083" y1="135.37841733333318" x2="163.9344262295082" y2="135.37841733333318" stroke-width="1" stroke="black"/><line class="median" x1="180.327868852459" y1="202.0941220000001" x2="327.86885245901635" y2="202.0941220000001" stroke-width="1" stroke="black"/><line class="median" x1="344.2622950819672" y1="197.39458166666662" x2="491.80327868852453" y2="197.39458166666662" stroke-width="1" stroke="black"/><line class="median" x1="508.19672131147536" y1="166.31421288888882" x2="655.7377049180327" y2="166.31421288888882" stroke-width="1" stroke="black"/><line class="median" x1="672.1311475409835" y1="212.6226725555556" x2="819.6721311475409" y2="212.6226725555556" stroke-width="1" stroke="black"/><line class="median" x1="836.0655737704917" y1="163.2620560000001" x2="983.6065573770491" y2="163.2620560000001" stroke-width="1" stroke="black"/><g class="whisker" transform="translate(53.27868852459017,0)"><line class="median" x1="0" y1="135.37841733333318" x2="73.77049180327869" y2="135.37841733333318" stroke-width="1" stroke="black"/><line class="median" x1="0" y1="135.37841733333318" x2="73.77049180327869" y2="135.37841733333318" stroke-width="1" stroke="black"/></g><g class="whisker" transform="translate(217.21311475409834,0)"><line class="median" x1="0" y1="211.8955715555555" x2="73.77049180327869" y2="211.8955715555555" stroke-width="1" stroke="black"/><line class="median" x1="0" y1="182.88281022222225" x2="73.77049180327869" y2="182.88281022222225" stroke-width="1" stroke="black"/></g><g class="whisker" transform="translate(381.1475409836065,0)"><line class="median" x1="0" y1="291.7721388888889" x2="73.77049180327869" y2="291.7721388888889" stroke-width="1" stroke="black"/><line class="median" x1="0" y1="48.257621999999856" x2="73.77049180327869" y2="48.257621999999856" stroke-width="1" stroke="black"/></g><g class="whisker" transform="translate(545.0819672131147,0)"><line class="median" x1="0" y1="171.4255877777777" x2="73.77049180327869" y2="171.4255877777777" stroke-width="1" stroke="black"/><line class="median" x1="0" y1="161.20283800000013" x2="73.77049180327869" y2="161.20283800000013" stroke-width="1" stroke="black"/></g><g class="whisker" transform="translate(709.0163934426229,0)"><line class="median" x1="0" y1="368.12187577777786" x2="73.77049180327869" y2="368.12187577777786" stroke-width="1" stroke="black"/><line class="median" x1="0" y1="61.75555733333323" x2="73.77049180327869" y2="61.75555733333323" stroke-width="1" stroke="black"/></g><g class="whisker" transform="translate(872.950819672131,0)"><line class="median" x1="0" y1="309.3926473333334" x2="73.77049180327869" y2="309.3926473333334" stroke-width="1" stroke="black"/><line class="median" x1="0" y1="15.892784000000063" x2="73.77049180327869" y2="15.892784000000063" stroke-width="1" stroke="black"/></g></g></svg>