<?xml version="1.0" standalone="no"?>
<svg xmlns="http://www.w3.org/2000/svg" width="1120" height="548.4166641235352"><g transform="translate(70,20)"><g class="x axis" transform="translate(0,400)" fill="none" font-size="10" font-family="sans-serif" text-anchor="middle"><path class="domain" stroke="#000" d="M0.5,6V0.5H1000.5V6"/><g class="tick" opacity="1" transform="translate(177.41935483870972,0)"><line stroke="#000" y2="6"/><text fill="#000" y="9" dy="-0.5em" style="text-anchor: end;" dx="-.8em" transform="rotate(-90)">Large (n=3)</text></g><g class="tick" opacity="1" transform="translate(500,0)"><line stroke="#000" y2="6"/><text fill="#000" y="9" dy="-0.5em" style="text-anchor: end;" dx="-.8em" transform="rotate(-90)">Medium (n=31)</text></g><g class="tick" opacity="1" transform="translate(822.5806451612904,0)"><line stroke="#000" y2="6"/><text fill="#000" y="9" dy="-0.5em" style="text-anchor: end;" dx="-.8em" transform="rotate(-90)">Small (n=9)</text></g></g><g class="y axis" fill="none" font-size="10" font-family="sans-serif" text-anchor="end"><path class="domain" stroke="#000" d="M-6,400.5H0.5V0.5H-6"/><g class="tick" opacity="1" transform="translate(0,400.5)"><line stroke="#000" x2="-6"/><text fill="#000" x="-9" dy="0.32em">0.66</text></g><g class="tick" opacity="1" transform="translate(0,356.0555555555555)"><line stroke="#000" x2="-6"/><text fill="#000" x="-9" dy="0.32em">0.68</text></g><g class="tick" opacity="1" transform="translate(0,311.61111111111126)"><line stroke="#000" x2="-6"/><text fill="#000" x="-9" dy="0.32em">0.70</text></g><g class="tick" opacity="1" transform="translate(0,267.16666666666674)"><line stroke="#000" x2="-6"/><text fill="#000" x="-9" dy="0.32em">0.72</text></g><g class="tick" opacity="1" transform="translate(0,222.72222222222226)"><line stroke="#000" x2="-6"/><text fill="#000" x="-9" dy="0.32em">0.74</text></g><g class="tick" opacity="1" transform="translate(0,178.27777777777777)"><line stroke="#000" x2="-6"/><text fill="#000" x="-9" dy="0.32em">0.76</text></g><g class="tick" opacity="1" transform="translate(0,133.83333333333326)"><line stroke="#000" x2="-6"/><text fill="#000" x="-9" dy="0.32em">0.78</text></g><g class="tick" opacity="1" transform="translate(0,89.38888888888874)"><line stroke="#000" x2="-6"/><text fill="#000" x="-9" dy="0.32em">0.80</text></g><g class="tick" opacity="1" transform="translate(0,44.944444444444514)"><line stroke="#000" x2="-6"/><text fill="#000" x="-9" dy="0.32em">0.82</text></g><g class="tick" opacity="1" transform="translate(0,0.5)"><line stroke="#000" x2="-6"/><text fill="#000" x="-9" dy="0.32em">0.84</text></g></g><text class="x label" text-anchor="middle" style="font: 12px sans-serif;" transform="translate(500,518.4166641235352)">Proportion</text><text class="y label" text-anchor="middle" style="font: 12px sans-serif;" transform="translate(-50,200)rotate(-90)">pielou_evenness</text><line class="center" x1="177.41935483870972" y1="171.4255877777777" x2="177.41935483870972" y2="135.37841733333318" stroke-dasharray="2,2" stroke-width="1" stroke="black"/><line class="center" x1="500" y1="309.3926473333334" x2="500" y2="13.569442222222278" stroke-dasharray="2,2" stroke-width="1" stroke="black"/><line class="center" x1="822.5806451612904" y1="368.12187577777786" x2="822.5806451612904" y2="61.75555733333323" stroke-dasharray="2,2" stroke-width="1" stroke="black"/><g class="outlier" transform="translate(177.41935483870972,0)"/><g class="whisker" transform="translate(104.8387096774194,0)"><line class="median" x1="0" y1="171.4255877777777" x2="145.16129032258064" y2="171.4255877777777" stroke-width="1" stroke="black"/><line class="median" x1="0" y1="135.37841733333318" x2="145.16129032258064" y2="135.37841733333318" stroke-width="1" stroke="black"/></g><g class="whisker" transform="translate(427.4193548387097,0)"><line class="median" x1="0" y1="309.3926473333334" x2="145.16129032258064" y2="309.3926473333334" stroke-width="1" stroke="black"/><line class="median" x1="0" y1="13.569442222222278" x2="145.16129032258064" y2="13.569442222222278" stroke-width="1" stroke="black"/></g><g class="whisker" transform="translate(750.0000000000001,0)"><line class="median" x1="0" y1="368.12187577777786" x2="145.16129032258064" y2="368.12187577777786" stroke-width="1" stroke="black"/><line class="median" x1="0" y1="61.75555733333323" x2="145.16129032258064" y2="61.75555733333323" stroke-width="1" stroke="black"/></g><g class="outlier" transform="translate(500,0)"/><g class="outlier" transform="translate(822.5806451612904,0)"/><rect class="box" x="32.25806451612908" y="148.29062766666664" width="290.3225806451613" height="18.02358522222218" fill="white" stroke-width="1" stroke="black"/><rect class="box" x="354.8387096774194" y="117.38417477777762" width="290.3225806451613" height="110.07173188888899" fill="white" stroke-width="1" stroke="black"/><rect class="box" x="677.4193548387098" y="157.99648244444447" width="290.3225806451613" height="109.25238022222229" fill="white" stroke-width="1" stroke="black"/><line class="median" x1="32.25806451612908" y1="161.20283800000013" x2="322.58064516129036" y2="161.20283800000013" stroke-width="1" stroke="black"/><line class="median" x1="354.8387096774194" y1="176.84034222222232" x2="645.1612903225807" y2="176.84034222222232" stroke-width="1" stroke="black"/><line class="median" x1="677.4193548387098" y1="202.0941220000001" x2="967.741935483871" y2="202.0941220000001" stroke-width="1" stroke="black"/></g></svg>