<?xml version="1.0" standalone="no"?>
<svg xmlns="http://www.w3.org/2000/svg" width="1120" height="548.4166641235352"><g transform="translate(70,20)"><g class="x axis" transform="translate(0,400)" fill="none" font-size="10" font-family="sans-serif" text-anchor="middle"><path class="domain" stroke="#000" d="M0.5,6V0.5H1000.5V6"/><g class="tick" opacity="1" transform="translate(177.41935483870972,0)"><line stroke="#000" y2="6"/><text fill="#000" y="9" dy="-0.5em" style="text-anchor: end;" dx="-.8em" transform="rotate(-90)">Calm (n=8)</text></g><g class="tick" opacity="1" transform="translate(500,0)"><line stroke="#000" y2="6"/><text fill="#000" y="9" dy="-0.5em" style="text-anchor: end;" dx="-.8em" transform="rotate(-90)">Medium (n=25)</text></g><g class="tick" opacity="1" transform="translate(822.5806451612904,0)"><line stroke="#000" y2="6"/><text fill="#000" y="9" dy="-0.5em" style="text-anchor: end;" dx="-.8em" transform="rotate(-90)">Strong (n=10)</text></g></g><g class="y axis" fill="none" font-size="10" font-family="sans-serif" text-anchor="end"><path class="domain" stroke="#000" d="M-6,400.5H0.5V0.5H-6"/><g class="tick" opacity="1" transform="translate(0,400.5)"><line stroke="#000" x2="-6"/><text fill="#000" x="-9" dy="0.32em">0.66</text></g><g class="tick" opacity="1" transform="translate(0,356.0555555555555)"><line stroke="#000" x2="-6"/><text fill="#000" x="-9" dy="0.32em">0.68</text></g><g class="tick" opacity="1" transform="translate(0,311.61111111111126)"><line stroke="#000" x2="-6"/><text fill="#000" x="-9" dy="0.32em">0.70</text></g><g class="tick" opacity="1" transform="translate(0,267.16666666666674)"><line stroke="#000" x2="-6"/><text fill="#000" x="-9" dy="0.32em">0.72</text></g><g class="tick" opacity="1" transform="translate(0,222.72222222222226)"><line stroke="#000" x2="-6"/><text fill="#000" x="-9" dy="0.32em">0.74</text></g><g class="tick" opacity="1" transform="translate(0,178.27777777777777)"><line stroke="#000" x2="-6"/><text fill="#000" x="-9" dy="0.32em">0.76</text></g><g class="tick" opacity="1" transform="translate(0,133.83333333333326)"><line stroke="#000" x2="-6"/><text fill="#000" x="-9" dy="0.32em">0.78</text></g><g class="tick" opacity="1" transform="translate(0,89.38888888888874)"><line stroke="#000" x2="-6"/><text fill="#000" x="-9" dy="0.32em">0.80</text></g><g class="tick" opacity="1" transform="translate(0,44.944444444444514)"><line stroke="#000" x2="-6"/><text fill="#000" x="-9" dy="0.32em">0.82</text></g><g class="tick" opacity="1" transform="translate(0,0.5)"><line stroke="#000" x2="-6"/><text fill="#000" x="-9" dy="0.32em">0.84</text></g></g><text class="x label" text-anchor="middle" style="font: 12px sans-serif;" transform="translate(500,518.4166641235352)">Current</text><text class="y label" text-anchor="middle" style="font: 12px sans-serif;" transform="translate(-50,200)rotate(-90)">pielou_evenness</text><g class="outlier" transform="translate(177.41935483870972,0)"/><line class="center" x1="177.41935483870972" y1="313.0191535555556" x2="177.41935483870972" y2="15.892784000000063" stroke-dasharray="2,2" stroke-width="1" stroke="black"/><rect class="box" x="32.25806451612908" y="58.3810734999999" width="290.3225806451613" height="167.3528208333333" fill="white" stroke-width="1" stroke="black"/><line class="median" x1="32.25806451612908" y1="196.80381500000013" x2="322.58064516129036" y2="196.80381500000013" stroke-width="1" stroke="black"/><g class="whisker" transform="translate(104.8387096774194,0)"><line class="median" x1="0" y1="313.0191535555556" x2="145.16129032258064" y2="313.0191535555556" stroke-width="1" stroke="black"/><line class="median" x1="0" y1="15.892784000000063" x2="145.16129032258064" y2="15.892784000000063" stroke-width="1" stroke="black"/></g><line class="center" x1="500" y1="291.7721388888889" x2="500" y2="47.640210000000025" stroke-dasharray="2,2" stroke-width="1" stroke="black"/><line class="center" x1="822.5806451612904" y1="280.6456497777777" x2="822.5806451612904" y2="104.00285155555554" stroke-dasharray="2,2" stroke-width="1" stroke="black"/><g class="outlier" transform="translate(500,0)"><circle r="4" stroke-width="1" stroke="black" stroke-opacity="0.3" fill="black" fill-opacity="0.33" cx="0" cy="368.12187577777786"/><circle r="4" stroke-width="1" stroke="black" stroke-opacity="0.3" fill="black" fill-opacity="0.33" cx="0" cy="13.569442222222278"/></g><g class="outlier" transform="translate(822.5806451612904,0)"><circle r="4" stroke-width="1" stroke="black" stroke-opacity="0.3" fill="black" fill-opacity="0.33" cx="0" cy="309.3926473333334"/></g><rect class="box" x="354.8387096774194" y="143.23123311111112" width="290.3225806451613" height="84.402517111111" fill="white" stroke-width="1" stroke="black"/><rect class="box" x="677.4193548387098" y="166.6201776111111" width="290.3225806451613" height="47.9357818888889" fill="white" stroke-width="1" stroke="black"/><line class="median" x1="354.8387096774194" y1="163.80672511111115" x2="645.1612903225807" y2="163.80672511111115" stroke-width="1" stroke="black"/><line class="median" x1="677.4193548387098" y1="180.4523428888888" x2="967.741935483871" y2="180.4523428888888" stroke-width="1" stroke="black"/><g class="whisker" transform="translate(427.4193548387097,0)"><line class="median" x1="0" y1="291.7721388888889" x2="145.16129032258064" y2="291.7721388888889" stroke-width="1" stroke="black"/><line class="median" x1="0" y1="47.640210000000025" x2="145.16129032258064" y2="47.640210000000025" stroke-width="1" stroke="black"/></g><g class="whisker" transform="translate(750.0000000000001,0)"><line class="median" x1="0" y1="280.6456497777777" x2="145.16129032258064" y2="280.6456497777777" stroke-width="1" stroke="black"/><line class="median" x1="0" y1="104.00285155555554" x2="145.16129032258064" y2="104.00285155555554" stroke-width="1" stroke="black"/></g></g></svg>