<?xml version="1.0" standalone="no"?>
<svg xmlns="http://www.w3.org/2000/svg" width="1120" height="550.1999969482422"><g transform="translate(70,20)"><g class="x axis" transform="translate(0,400)" fill="none" font-size="10" font-family="sans-serif" text-anchor="middle"><path class="domain" stroke="#000" d="M0.5,6V0.5H1000.5V6"/><g class="tick" opacity="1" transform="translate(67.90123456790117,0)"><line stroke="#000" y2="6"/><text fill="#000" y="9" dy="-0.5em" style="text-anchor: end;" dx="-.8em" transform="rotate(-90)">Ceiba (n=9)</text></g><g class="tick" opacity="1" transform="translate(191.35802469135797,0)"><line stroke="#000" y2="6"/><text fill="#000" y="9" dy="-0.5em" style="text-anchor: end;" dx="-.8em" transform="rotate(-90)">Culebra (n=6)</text></g><g class="tick" opacity="1" transform="translate(314.8148148148148,0)"><line stroke="#000" y2="6"/><text fill="#000" y="9" dy="-0.5em" style="text-anchor: end;" dx="-.8em" transform="rotate(-90)">Guanica (n=3)</text></g><g class="tick" opacity="1" transform="translate(438.27160493827154,0)"><line stroke="#000" y2="6"/><text fill="#000" y="9" dy="-0.5em" style="text-anchor: end;" dx="-.8em" transform="rotate(-90)">Guayama (n=2)</text></g><g class="tick" opacity="1" transform="translate(561.7283950617284,0)"><line stroke="#000" y2="6"/><text fill="#000" y="9" dy="-0.5em" style="text-anchor: end;" dx="-.8em" transform="rotate(-90)">Isabella (n=5)</text></g><g class="tick" opacity="1" transform="translate(685.1851851851851,0)"><line stroke="#000" y2="6"/><text fill="#000" y="9" dy="-0.5em" style="text-anchor: end;" dx="-.8em" transform="rotate(-90)">Luquillo (n=5)</text></g><g class="tick" opacity="1" transform="translate(808.6419753086419,0)"><line stroke="#000" y2="6"/><text fill="#000" y="9" dy="-0.5em" style="text-anchor: end;" dx="-.8em" transform="rotate(-90)">Ponce (n=3)</text></g><g class="tick" opacity="1" transform="translate(932.0987654320987,0)"><line stroke="#000" y2="6"/><text fill="#000" y="9" dy="-0.5em" style="text-anchor: end;" dx="-.8em" transform="rotate(-90)">Rincon (n=10)</text></g></g><g class="y axis" fill="none" font-size="10" font-family="sans-serif" text-anchor="end"><path class="domain" stroke="#000" d="M-6,400.5H0.5V0.5H-6"/><g class="tick" opacity="1" transform="translate(0,400.5)"><line stroke="#000" x2="-6"/><text fill="#000" x="-9" dy="0.32em">1.0</text></g><g class="tick" opacity="1" transform="translate(0,373.8333333333333)"><line stroke="#000" x2="-6"/><text fill="#000" x="-9" dy="0.32em">1.2</text></g><g class="tick" opacity="1" transform="translate(0,347.1666666666667)"><line stroke="#000" x2="-6"/><text fill="#000" x="-9" dy="0.32em">1.4</text></g><g class="tick" opacity="1" transform="translate(0,320.5)"><line stroke="#000" x2="-6"/><text fill="#000" x="-9" dy="0.32em">1.6</text></g><g class="tick" opacity="1" transform="translate(0,293.8333333333333)"><line stroke="#000" x2="-6"/><text fill="#000" x="-9" dy="0.32em">1.8</text></g><g class="tick" opacity="1" transform="translate(0,267.1666666666667)"><line stroke="#000" x2="-6"/><text fill="#000" x="-9" dy="0.32em">2.0</text></g><g class="tick" opacity="1" transform="translate(0,240.49999999999997)"><line stroke="#000" x2="-6"/><text fill="#000" x="-9" dy="0.32em">2.2</text></g><g class="tick" opacity="1" transform="translate(0,213.83333333333334)"><line stroke="#000" x2="-6"/><text fill="#000" x="-9" dy="0.32em">2.4</text></g><g class="tick" opacity="1" transform="translate(0,187.16666666666666)"><line stroke="#000" x2="-6"/><text fill="#000" x="-9" dy="0.32em">2.6</text></g><g class="tick" opacity="1" transform="translate(0,160.5)"><line stroke="#000" x2="-6"/><text fill="#000" x="-9" dy="0.32em">2.8</text></g><g class="tick" opacity="1" transform="translate(0,133.83333333333337)"><line stroke="#000" x2="-6"/><text fill="#000" x="-9" dy="0.32em">3.0</text></g><g class="tick" opacity="1" transform="translate(0,107.16666666666663)"><line stroke="#000" x2="-6"/><text fill="#000" x="-9" dy="0.32em">3.2</text></g><g class="tick" opacity="1" transform="translate(0,80.5)"><line stroke="#000" x2="-6"/><text fill="#000" x="-9" dy="0.32em">3.4</text></g><g class="tick" opacity="1" transform="translate(0,53.833333333333314)"><line stroke="#000" x2="-6"/><text fill="#000" x="-9" dy="0.32em">3.6</text></g><g class="tick" opacity="1" transform="translate(0,27.166666666666686)"><line stroke="#000" x2="-6"/><text fill="#000" x="-9" dy="0.32em">3.8</text></g><g class="tick" opacity="1" transform="translate(0,0.5)"><line stroke="#000" x2="-6"/><text fill="#000" x="-9" dy="0.32em">4.0</text></g></g><text class="x label" text-anchor="middle" style="font: 12px sans-serif;" transform="translate(500,520.1999969482422)">Location</text><text class="y label" text-anchor="middle" style="font: 12px sans-serif;" transform="translate(-50,200)rotate(-90)">faith_pd</text><g class="outlier" transform="translate(314.8148148148148,0)"/><g class="outlier" transform="translate(67.90123456790117,0)"><circle r="4" stroke-width="1" stroke="black" stroke-opacity="0.3" fill="black" fill-opacity="0.33" cx="0" cy="283.19333232"/><circle r="4" stroke-width="1" stroke="black" stroke-opacity="0.3" fill="black" fill-opacity="0.33" cx="0" cy="55.13339516000002"/></g><g class="outlier" transform="translate(191.35802469135797,0)"><circle r="4" stroke-width="1" stroke="black" stroke-opacity="0.3" fill="black" fill-opacity="0.33" cx="0" cy="380.52198494666663"/></g><line class="center" x1="67.90123456790117" y1="226.30966925333337" x2="67.90123456790117" y2="100.87339459999998" stroke-dasharray="2,2" stroke-width="1" stroke="black"/><line class="center" x1="191.35802469135797" y1="267.2559364133333" x2="191.35802469135797" y2="128.38259917333335" stroke-dasharray="2,2" stroke-width="1" stroke="black"/><line class="center" x1="314.8148148148148" y1="229.5151458" x2="314.8148148148148" y2="158.21712761333333" stroke-dasharray="2,2" stroke-width="1" stroke="black"/><line class="center" x1="438.27160493827154" y1="212.09606830666667" x2="438.27160493827154" y2="106.83019644000001" stroke-dasharray="2,2" stroke-width="1" stroke="black"/><line class="center" x1="561.7283950617284" y1="279.7398952" x2="561.7283950617284" y2="106.15019819999998" stroke-dasharray="2,2" stroke-width="1" stroke="black"/><line class="center" x1="685.1851851851851" y1="164.6614408" x2="685.1851851851851" y2="9.415606880000041" stroke-dasharray="2,2" stroke-width="1" stroke="black"/><line class="center" x1="808.6419753086419" y1="263.8186828266667" x2="808.6419753086419" y2="125.06539401333333" stroke-dasharray="2,2" stroke-width="1" stroke="black"/><line class="center" x1="932.0987654320987" y1="284.7878279733333" x2="932.0987654320987" y2="11.050964506666674" stroke-dasharray="2,2" stroke-width="1" stroke="black"/><g class="whisker" transform="translate(40.12345679012339,0)"><line class="median" x1="0" y1="226.30966925333337" x2="55.55555555555556" y2="226.30966925333337" stroke-width="1" stroke="black"/><line class="median" x1="0" y1="100.87339459999998" x2="55.55555555555556" y2="100.87339459999998" stroke-width="1" stroke="black"/></g><g class="whisker" transform="translate(163.5802469135802,0)"><line class="median" x1="0" y1="267.2559364133333" x2="55.55555555555556" y2="267.2559364133333" stroke-width="1" stroke="black"/><line class="median" x1="0" y1="128.38259917333335" x2="55.55555555555556" y2="128.38259917333335" stroke-width="1" stroke="black"/></g><g class="whisker" transform="translate(287.037037037037,0)"><line class="median" x1="0" y1="229.5151458" x2="55.55555555555556" y2="229.5151458" stroke-width="1" stroke="black"/><line class="median" x1="0" y1="158.21712761333333" x2="55.55555555555556" y2="158.21712761333333" stroke-width="1" stroke="black"/></g><g class="whisker" transform="translate(410.49382716049377,0)"><line class="median" x1="0" y1="212.09606830666667" x2="55.55555555555556" y2="212.09606830666667" stroke-width="1" stroke="black"/><line class="median" x1="0" y1="106.83019644000001" x2="55.55555555555556" y2="106.83019644000001" stroke-width="1" stroke="black"/></g><g class="whisker" transform="translate(533.9506172839506,0)"><line class="median" x1="0" y1="279.7398952" x2="55.55555555555556" y2="279.7398952" stroke-width="1" stroke="black"/><line class="median" x1="0" y1="106.15019819999998" x2="55.55555555555556" y2="106.15019819999998" stroke-width="1" stroke="black"/></g><g class="whisker" transform="translate(657.4074074074074,0)"><line class="median" x1="0" y1="164.6614408" x2="55.55555555555556" y2="164.6614408" stroke-width="1" stroke="black"/><line class="median" x1="0" y1="9.415606880000041" x2="55.55555555555556" y2="9.415606880000041" stroke-width="1" stroke="black"/></g><g class="whisker" transform="translate(780.8641975308642,0)"><line class="median" x1="0" y1="263.8186828266667" x2="55.55555555555556" y2="263.8186828266667" stroke-width="1" stroke="black"/><line class="median" x1="0" y1="125.06539401333333" x2="55.55555555555556" y2="125.06539401333333" stroke-width="1" stroke="black"/></g><g class="whisker" transform="translate(904.320987654321,0)"><line class="median" x1="0" y1="284.7878279733333" x2="55.55555555555556" y2="284.7878279733333" stroke-width="1" stroke="black"/><line class="median" x1="0" y1="11.050964506666674" x2="55.55555555555556" y2="11.050964506666674" stroke-width="1" stroke="black"/></g><g class="outlier" transform="translate(438.27160493827154,0)"/><g class="outlier" transform="translate(561.7283950617284,0)"/><g class="outlier" transform="translate(685.1851851851851,0)"/><g class="outlier" transform="translate(808.6419753086419,0)"/><g class="outlier" transform="translate(932.0987654320987,0)"/><rect class="box" x="12.345679012345613" y="146.6707820533333" width="111.11111111111111" height="35.09689502666669" fill="white" stroke-width="1" stroke="black"/><rect class="box" x="135.80246913580243" y="202.55406702666664" width="111.11111111111111" height="61.12998782" fill="white" stroke-width="1" stroke="black"/><rect class="box" x="259.25925925925924" y="184.2934044733333" width="111.11111111111111" height="35.64900909333335" fill="white" stroke-width="1" stroke="black"/><rect class="box" x="382.716049382716" y="133.14666440666667" width="111.11111111111111" height="52.63293593333327" fill="white" stroke-width="1" stroke="black"/><rect class="box" x="506.1728395061728" y="146.32376321333336" width="111.11111111111111" height="91.27431911999997" fill="white" stroke-width="1" stroke="black"/><rect class="box" x="629.6296296296296" y="85.42766752" width="111.11111111111111" height="77.75330789333336" fill="white" stroke-width="1" stroke="black"/><rect class="box" x="753.0864197530864" y="159.66704204" width="111.11111111111111" height="69.37664440666668" fill="white" stroke-width="1" stroke="black"/><rect class="box" x="876.5432098765432" y="67.87177495999998" width="111.11111111111111" height="152.51694655" fill="white" stroke-width="1" stroke="black"/><line class="median" x1="12.345679012345613" y1="154.58664053333334" x2="123.45679012345673" y2="154.58664053333334" stroke-width="1" stroke="black"/><line class="median" x1="135.80246913580243" y1="237.06599176666668" x2="246.91358024691354" y2="237.06599176666668" stroke-width="1" stroke="black"/><line class="median" x1="259.25925925925924" y1="210.36968133333332" x2="370.3703703703703" y2="210.36968133333332" stroke-width="1" stroke="black"/><line class="median" x1="382.716049382716" y1="159.4631323733333" x2="493.82716049382714" y2="159.4631323733333" stroke-width="1" stroke="black"/><line class="median" x1="506.1728395061728" y1="199.48802054666666" x2="617.283950617284" y2="199.48802054666666" stroke-width="1" stroke="black"/><line class="median" x1="629.6296296296296" y1="108.08589883999997" x2="740.7407407407406" y2="108.08589883999997" stroke-width="1" stroke="black"/><line class="median" x1="753.0864197530864" y1="194.26869006666666" x2="864.1975308641975" y2="194.26869006666666" stroke-width="1" stroke="black"/><line class="median" x1="876.5432098765432" y1="168.3442938666667" x2="987.6543209876543" y2="168.3442938666667" stroke-width="1" stroke="black"/></g></svg>