<?xml version="1.0" standalone="no"?>
<svg xmlns="http://www.w3.org/2000/svg" width="1120" height="536.4000015258789"><g transform="translate(70,20)"><g class="x axis" transform="translate(0,400)" fill="none" font-size="10" font-family="sans-serif" text-anchor="middle"><path class="domain" stroke="#000" d="M0.5,6V0.5H1000.5V6"/><g class="tick" opacity="1" transform="translate(134.1463414634146,0)"><line stroke="#000" y2="6"/><text fill="#000" y="9" dy="-0.5em" style="text-anchor: end;" dx="-.8em" transform="rotate(-90)">East (n=6)</text></g><g class="tick" opacity="1" transform="translate(378.04878048780483,0)"><line stroke="#000" y2="6"/><text fill="#000" y="9" dy="-0.5em" style="text-anchor: end;" dx="-.8em" transform="rotate(-90)">North (n=19)</text></g><g class="tick" opacity="1" transform="translate(621.9512195121952,0)"><line stroke="#000" y2="6"/><text fill="#000" y="9" dy="-0.5em" style="text-anchor: end;" dx="-.8em" transform="rotate(-90)">South (n=8)</text></g><g class="tick" opacity="1" transform="translate(865.8536585365853,0)"><line stroke="#000" y2="6"/><text fill="#000" y="9" dy="-0.5em" style="text-anchor: end;" dx="-.8em" transform="rotate(-90)">West (n=10)</text></g></g><g class="y axis" fill="none" font-size="10" font-family="sans-serif" text-anchor="end"><path class="domain" stroke="#000" d="M-6,400.5H0.5V0.5H-6"/><g class="tick" opacity="1" transform="translate(0,400.5)"><line stroke="#000" x2="-6"/><text fill="#000" x="-9" dy="0.32em">1.0</text></g><g class="tick" opacity="1" transform="translate(0,373.8333333333333)"><line stroke="#000" x2="-6"/><text fill="#000" x="-9" dy="0.32em">1.2</text></g><g class="tick" opacity="1" transform="translate(0,347.1666666666667)"><line stroke="#000" x2="-6"/><text fill="#000" x="-9" dy="0.32em">1.4</text></g><g class="tick" opacity="1" transform="translate(0,320.5)"><line stroke="#000" x2="-6"/><text fill="#000" x="-9" dy="0.32em">1.6</text></g><g class="tick" opacity="1" transform="translate(0,293.8333333333333)"><line stroke="#000" x2="-6"/><text fill="#000" x="-9" dy="0.32em">1.8</text></g><g class="tick" opacity="1" transform="translate(0,267.1666666666667)"><line stroke="#000" x2="-6"/><text fill="#000" x="-9" dy="0.32em">2.0</text></g><g class="tick" opacity="1" transform="translate(0,240.49999999999997)"><line stroke="#000" x2="-6"/><text fill="#000" x="-9" dy="0.32em">2.2</text></g><g class="tick" opacity="1" transform="translate(0,213.83333333333334)"><line stroke="#000" x2="-6"/><text fill="#000" x="-9" dy="0.32em">2.4</text></g><g class="tick" opacity="1" transform="translate(0,187.16666666666666)"><line stroke="#000" x2="-6"/><text fill="#000" x="-9" dy="0.32em">2.6</text></g><g class="tick" opacity="1" transform="translate(0,160.5)"><line stroke="#000" x2="-6"/><text fill="#000" x="-9" dy="0.32em">2.8</text></g><g class="tick" opacity="1" transform="translate(0,133.83333333333337)"><line stroke="#000" x2="-6"/><text fill="#000" x="-9" dy="0.32em">3.0</text></g><g class="tick" opacity="1" transform="translate(0,107.16666666666663)"><line stroke="#000" x2="-6"/><text fill="#000" x="-9" dy="0.32em">3.2</text></g><g class="tick" opacity="1" transform="translate(0,80.5)"><line stroke="#000" x2="-6"/><text fill="#000" x="-9" dy="0.32em">3.4</text></g><g class="tick" opacity="1" transform="translate(0,53.833333333333314)"><line stroke="#000" x2="-6"/><text fill="#000" x="-9" dy="0.32em">3.6</text></g><g class="tick" opacity="1" transform="translate(0,27.166666666666686)"><line stroke="#000" x2="-6"/><text fill="#000" x="-9" dy="0.32em">3.8</text></g><g class="tick" opacity="1" transform="translate(0,0.5)"><line stroke="#000" x2="-6"/><text fill="#000" x="-9" dy="0.32em">4.0</text></g></g><text class="x label" text-anchor="middle" style="font: 12px sans-serif;" transform="translate(500,506.4000015258789)">Alignment</text><text class="y label" text-anchor="middle" style="font: 12px sans-serif;" transform="translate(-50,200)rotate(-90)">faith_pd</text><g class="outlier" transform="translate(378.04878048780483,0)"/><g class="outlier" transform="translate(134.1463414634146,0)"><circle r="4" stroke-width="1" stroke="black" stroke-opacity="0.3" fill="black" fill-opacity="0.33" cx="0" cy="380.52198494666663"/></g><line class="center" x1="134.1463414634146" y1="267.2559364133333" x2="134.1463414634146" y2="128.38259917333335" stroke-dasharray="2,2" stroke-width="1" stroke="black"/><line class="center" x1="378.04878048780483" y1="283.19333232" x2="378.04878048780483" y2="9.415606880000041" stroke-dasharray="2,2" stroke-width="1" stroke="black"/><line class="center" x1="621.9512195121952" y1="263.8186828266667" x2="621.9512195121952" y2="106.83019644000001" stroke-dasharray="2,2" stroke-width="1" stroke="black"/><line class="center" x1="865.8536585365853" y1="284.7878279733333" x2="865.8536585365853" y2="11.050964506666674" stroke-dasharray="2,2" stroke-width="1" stroke="black"/><g class="whisker" transform="translate(79.26829268292677,0)"><line class="median" x1="0" y1="267.2559364133333" x2="109.75609756097563" y2="267.2559364133333" stroke-width="1" stroke="black"/><line class="median" x1="0" y1="128.38259917333335" x2="109.75609756097563" y2="128.38259917333335" stroke-width="1" stroke="black"/></g><g class="whisker" transform="translate(323.17073170731703,0)"><line class="median" x1="0" y1="283.19333232" x2="109.75609756097563" y2="283.19333232" stroke-width="1" stroke="black"/><line class="median" x1="0" y1="9.415606880000041" x2="109.75609756097563" y2="9.415606880000041" stroke-width="1" stroke="black"/></g><g class="whisker" transform="translate(567.0731707317074,0)"><line class="median" x1="0" y1="263.8186828266667" x2="109.75609756097563" y2="263.8186828266667" stroke-width="1" stroke="black"/><line class="median" x1="0" y1="106.83019644000001" x2="109.75609756097563" y2="106.83019644000001" stroke-width="1" stroke="black"/></g><g class="whisker" transform="translate(810.9756097560975,0)"><line class="median" x1="0" y1="284.7878279733333" x2="109.75609756097563" y2="284.7878279733333" stroke-width="1" stroke="black"/><line class="median" x1="0" y1="11.050964506666674" x2="109.75609756097563" y2="11.050964506666674" stroke-width="1" stroke="black"/></g><rect class="box" x="24.390243902438954" y="202.55406702666664" width="219.51219512195127" height="61.12998782" fill="white" stroke-width="1" stroke="black"/><rect class="box" x="268.29268292682923" y="107.11804852" width="219.51219512195127" height="83.50980029333331" fill="white" stroke-width="1" stroke="black"/><rect class="box" x="512.1951219512196" y="149.92919421333332" width="219.51219512195127" height="66.52164346666669" fill="white" stroke-width="1" stroke="black"/><rect class="box" x="756.0975609756097" y="67.87177495999998" width="219.51219512195127" height="152.51694655" fill="white" stroke-width="1" stroke="black"/><line class="median" x1="24.390243902438954" y1="237.06599176666668" x2="243.90243902439022" y2="237.06599176666668" stroke-width="1" stroke="black"/><line class="median" x1="268.29268292682923" y1="154.58664053333334" x2="487.8048780487805" y2="154.58664053333334" stroke-width="1" stroke="black"/><line class="median" x1="512.1951219512196" y1="202.3191857" x2="731.7073170731708" y2="202.3191857" stroke-width="1" stroke="black"/><line class="median" x1="756.0975609756097" y1="168.3442938666667" x2="975.6097560975609" y2="168.3442938666667" stroke-width="1" stroke="black"/><g class="outlier" transform="translate(621.9512195121952,0)"/><g class="outlier" transform="translate(865.8536585365853,0)"/></g></svg>