<?xml version="1.0" standalone="no"?>
<svg xmlns="http://www.w3.org/2000/svg" width="1120" height="548.4166641235352"><g transform="translate(70,20)"><g class="x axis" transform="translate(0,400)" fill="none" font-size="10" font-family="sans-serif" text-anchor="middle"><path class="domain" stroke="#000" d="M0.5,6V0.5H1000.5V6"/><g class="tick" opacity="1" transform="translate(177.41935483870972,0)"><line stroke="#000" y2="6"/><text fill="#000" y="9" dy="-0.5em" style="text-anchor: end;" dx="-.8em" transform="rotate(-90)">Calm (n=8)</text></g><g class="tick" opacity="1" transform="translate(500,0)"><line stroke="#000" y2="6"/><text fill="#000" y="9" dy="-0.5em" style="text-anchor: end;" dx="-.8em" transform="rotate(-90)">Medium (n=25)</text></g><g class="tick" opacity="1" transform="translate(822.5806451612904,0)"><line stroke="#000" y2="6"/><text fill="#000" y="9" dy="-0.5em" style="text-anchor: end;" dx="-.8em" transform="rotate(-90)">Strong (n=10)</text></g></g><g class="y axis" fill="none" font-size="10" font-family="sans-serif" text-anchor="end"><path class="domain" stroke="#000" d="M-6,400.5H0.5V0.5H-6"/><g class="tick" opacity="1" transform="translate(0,400.5)"><line stroke="#000" x2="-6"/><text fill="#000" x="-9" dy="0.32em">1.0</text></g><g class="tick" opacity="1" transform="translate(0,373.8333333333333)"><line stroke="#000" x2="-6"/><text fill="#000" x="-9" dy="0.32em">1.2</text></g><g class="tick" opacity="1" transform="translate(0,347.1666666666667)"><line stroke="#000" x2="-6"/><text fill="#000" x="-9" dy="0.32em">1.4</text></g><g class="tick" opacity="1" transform="translate(0,320.5)"><line stroke="#000" x2="-6"/><text fill="#000" x="-9" dy="0.32em">1.6</text></g><g class="tick" opacity="1" transform="translate(0,293.8333333333333)"><line stroke="#000" x2="-6"/><text fill="#000" x="-9" dy="0.32em">1.8</text></g><g class="tick" opacity="1" transform="translate(0,267.1666666666667)"><line stroke="#000" x2="-6"/><text fill="#000" x="-9" dy="0.32em">2.0</text></g><g class="tick" opacity="1" transform="translate(0,240.49999999999997)"><line stroke="#000" x2="-6"/><text fill="#000" x="-9" dy="0.32em">2.2</text></g><g class="tick" opacity="1" transform="translate(0,213.83333333333334)"><line stroke="#000" x2="-6"/><text fill="#000" x="-9" dy="0.32em">2.4</text></g><g class="tick" opacity="1" transform="translate(0,187.16666666666666)"><line stroke="#000" x2="-6"/><text fill="#000" x="-9" dy="0.32em">2.6</text></g><g class="tick" opacity="1" transform="translate(0,160.5)"><line stroke="#000" x2="-6"/><text fill="#000" x="-9" dy="0.32em">2.8</text></g><g class="tick" opacity="1" transform="translate(0,133.83333333333337)"><line stroke="#000" x2="-6"/><text fill="#000" x="-9" dy="0.32em">3.0</text></g><g class="tick" opacity="1" transform="translate(0,107.16666666666663)"><line stroke="#000" x2="-6"/><text fill="#000" x="-9" dy="0.32em">3.2</text></g><g class="tick" opacity="1" transform="translate(0,80.5)"><line stroke="#000" x2="-6"/><text fill="#000" x="-9" dy="0.32em">3.4</text></g><g class="tick" opacity="1" transform="translate(0,53.833333333333314)"><line stroke="#000" x2="-6"/><text fill="#000" x="-9" dy="0.32em">3.6</text></g><g class="tick" opacity="1" transform="translate(0,27.166666666666686)"><line stroke="#000" x2="-6"/><text fill="#000" x="-9" dy="0.32em">3.8</text></g><g class="tick" opacity="1" transform="translate(0,0.5)"><line stroke="#000" x2="-6"/><text fill="#000" x="-9" dy="0.32em">4.0</text></g></g><text class="x label" text-anchor="middle" style="font: 12px sans-serif;" transform="translate(500,518.4166641235352)">Current</text><text class="y label" text-anchor="middle" style="font: 12px sans-serif;" transform="translate(-50,200)rotate(-90)">faith_pd</text><g class="outlier" transform="translate(177.41935483870972,0)"/><g class="outlier" transform="translate(500,0)"><circle r="4" stroke-width="1" stroke="black" stroke-opacity="0.3" fill="black" fill-opacity="0.33" cx="0" cy="380.52198494666663"/></g><line class="center" x1="177.41935483870972" y1="263.8186828266667" x2="177.41935483870972" y2="106.83019644000001" stroke-dasharray="2,2" stroke-width="1" stroke="black"/><line class="center" x1="500" y1="284.7878279733333" x2="500" y2="11.050964506666674" stroke-dasharray="2,2" stroke-width="1" stroke="black"/><rect class="box" x="32.25806451612908" y="149.92919421333332" width="290.3225806451613" height="66.52164346666669" fill="white" stroke-width="1" stroke="black"/><line class="median" x1="32.25806451612908" y1="202.3191857" x2="322.58064516129036" y2="202.3191857" stroke-width="1" stroke="black"/><g class="whisker" transform="translate(104.8387096774194,0)"><line class="median" x1="0" y1="263.8186828266667" x2="145.16129032258064" y2="263.8186828266667" stroke-width="1" stroke="black"/><line class="median" x1="0" y1="106.83019644000001" x2="145.16129032258064" y2="106.83019644000001" stroke-width="1" stroke="black"/></g><g class="whisker" transform="translate(427.4193548387097,0)"><line class="median" x1="0" y1="284.7878279733333" x2="145.16129032258064" y2="284.7878279733333" stroke-width="1" stroke="black"/><line class="median" x1="0" y1="11.050964506666674" x2="145.16129032258064" y2="11.050964506666674" stroke-width="1" stroke="black"/></g><line class="center" x1="822.5806451612904" y1="279.7398952" x2="822.5806451612904" y2="9.415606880000041" stroke-dasharray="2,2" stroke-width="1" stroke="black"/><g class="outlier" transform="translate(822.5806451612904,0)"/><rect class="box" x="354.8387096774194" y="131.57821203999998" width="290.3225806451613" height="98.79377204000002" fill="white" stroke-width="1" stroke="black"/><rect class="box" x="677.4193548387098" y="106.63412335999999" width="290.3225806451613" height="84.14725225000001" fill="white" stroke-width="1" stroke="black"/><line class="median" x1="354.8387096774194" y1="181.76767708" x2="645.1612903225807" y2="181.76767708" stroke-width="1" stroke="black"/><line class="median" x1="677.4193548387098" y1="154.75236931333333" x2="967.741935483871" y2="154.75236931333333" stroke-width="1" stroke="black"/><g class="whisker" transform="translate(750.0000000000001,0)"><line class="median" x1="0" y1="279.7398952" x2="145.16129032258064" y2="279.7398952" stroke-width="1" stroke="black"/><line class="median" x1="0" y1="9.415606880000041" x2="145.16129032258064" y2="9.415606880000041" stroke-width="1" stroke="black"/></g></g></svg>