<?xml version="1.0" standalone="no"?>
<svg xmlns="http://www.w3.org/2000/svg" width="1120" height="548.4166641235352"><g transform="translate(70,20)"><g class="x axis" transform="translate(0,400)" fill="none" font-size="10" font-family="sans-serif" text-anchor="middle"><path class="domain" stroke="#000" d="M0.5,6V0.5H1000.5V6"/><g class="tick" opacity="1" transform="translate(177.41935483870972,0)"><line stroke="#000" y2="6"/><text fill="#000" y="9" dy="-0.5em" style="text-anchor: end;" dx="-.8em" transform="rotate(-90)">Large (n=3)</text></g><g class="tick" opacity="1" transform="translate(500,0)"><line stroke="#000" y2="6"/><text fill="#000" y="9" dy="-0.5em" style="text-anchor: end;" dx="-.8em" transform="rotate(-90)">Medium (n=31)</text></g><g class="tick" opacity="1" transform="translate(822.5806451612904,0)"><line stroke="#000" y2="6"/><text fill="#000" y="9" dy="-0.5em" style="text-anchor: end;" dx="-.8em" transform="rotate(-90)">Small (n=9)</text></g></g><g class="y axis" fill="none" font-size="10" font-family="sans-serif" text-anchor="end"><path class="domain" stroke="#000" d="M-6,400.5H0.5V0.5H-6"/><g class="tick" opacity="1" transform="translate(0,400.5)"><line stroke="#000" x2="-6"/><text fill="#000" x="-9" dy="0.32em">1.0</text></g><g class="tick" opacity="1" transform="translate(0,373.8333333333333)"><line stroke="#000" x2="-6"/><text fill="#000" x="-9" dy="0.32em">1.2</text></g><g class="tick" opacity="1" transform="translate(0,347.1666666666667)"><line stroke="#000" x2="-6"/><text fill="#000" x="-9" dy="0.32em">1.4</text></g><g class="tick" opacity="1" transform="translate(0,320.5)"><line stroke="#000" x2="-6"/><text fill="#000" x="-9" dy="0.32em">1.6</text></g><g class="tick" opacity="1" transform="translate(0,293.8333333333333)"><line stroke="#000" x2="-6"/><text fill="#000" x="-9" dy="0.32em">1.8</text></g><g class="tick" opacity="1" transform="translate(0,267.1666666666667)"><line stroke="#000" x2="-6"/><text fill="#000" x="-9" dy="0.32em">2.0</text></g><g class="tick" opacity="1" transform="translate(0,240.49999999999997)"><line stroke="#000" x2="-6"/><text fill="#000" x="-9" dy="0.32em">2.2</text></g><g class="tick" opacity="1" transform="translate(0,213.83333333333334)"><line stroke="#000" x2="-6"/><text fill="#000" x="-9" dy="0.32em">2.4</text></g><g class="tick" opacity="1" transform="translate(0,187.16666666666666)"><line stroke="#000" x2="-6"/><text fill="#000" x="-9" dy="0.32em">2.6</text></g><g class="tick" opacity="1" transform="translate(0,160.5)"><line stroke="#000" x2="-6"/><text fill="#000" x="-9" dy="0.32em">2.8</text></g><g class="tick" opacity="1" transform="translate(0,133.83333333333337)"><line stroke="#000" x2="-6"/><text fill="#000" x="-9" dy="0.32em">3.0</text></g><g class="tick" opacity="1" transform="translate(0,107.16666666666663)"><line stroke="#000" x2="-6"/><text fill="#000" x="-9" dy="0.32em">3.2</text></g><g class="tick" opacity="1" transform="translate(0,80.5)"><line stroke="#000" x2="-6"/><text fill="#000" x="-9" dy="0.32em">3.4</text></g><g class="tick" opacity="1" transform="translate(0,53.833333333333314)"><line stroke="#000" x2="-6"/><text fill="#000" x="-9" dy="0.32em">3.6</text></g><g class="tick" opacity="1" transform="translate(0,27.166666666666686)"><line stroke="#000" x2="-6"/><text fill="#000" x="-9" dy="0.32em">3.8</text></g><g class="tick" opacity="1" transform="translate(0,0.5)"><line stroke="#000" x2="-6"/><text fill="#000" x="-9" dy="0.32em">4.0</text></g></g><text class="x label" text-anchor="middle" style="font: 12px sans-serif;" transform="translate(500,518.4166641235352)">Proportion</text><text class="y label" text-anchor="middle" style="font: 12px sans-serif;" transform="translate(-50,200)rotate(-90)">faith_pd</text><line class="center" x1="177.41935483870972" y1="267.2559364133333" x2="177.41935483870972" y2="128.38259917333335" stroke-dasharray="2,2" stroke-width="1" stroke="black"/><g class="outlier" transform="translate(177.41935483870972,0)"/><g class="whisker" transform="translate(104.8387096774194,0)"><line class="median" x1="0" y1="267.2559364133333" x2="145.16129032258064" y2="267.2559364133333" stroke-width="1" stroke="black"/><line class="median" x1="0" y1="128.38259917333335" x2="145.16129032258064" y2="128.38259917333335" stroke-width="1" stroke="black"/></g><line class="center" x1="500" y1="284.7878279733333" x2="500" y2="9.415606880000041" stroke-dasharray="2,2" stroke-width="1" stroke="black"/><line class="center" x1="822.5806451612904" y1="263.8186828266667" x2="822.5806451612904" y2="181.76767708" stroke-dasharray="2,2" stroke-width="1" stroke="black"/><g class="outlier" transform="translate(500,0)"><circle r="4" stroke-width="1" stroke="black" stroke-opacity="0.3" fill="black" fill-opacity="0.33" cx="0" cy="380.52198494666663"/></g><g class="outlier" transform="translate(822.5806451612904,0)"><circle r="4" stroke-width="1" stroke="black" stroke-opacity="0.3" fill="black" fill-opacity="0.33" cx="0" cy="283.19333232"/></g><rect class="box" x="32.25806451612908" y="137.35318119333334" width="290.3225806451613" height="69.43666861999998" fill="white" stroke-width="1" stroke="black"/><rect class="box" x="354.8387096774194" y="106.49019732" width="290.3225806451613" height="102.26703849333336" fill="white" stroke-width="1" stroke="black"/><rect class="box" x="677.4193548387098" y="199.48802054666666" width="290.3225806451613" height="30.883963533333343" fill="white" stroke-width="1" stroke="black"/><line class="median" x1="32.25806451612908" y1="146.32376321333336" x2="322.58064516129036" y2="146.32376321333336" stroke-width="1" stroke="black"/><line class="median" x1="354.8387096774194" y1="154.58664053333334" x2="645.1612903225807" y2="154.58664053333334" stroke-width="1" stroke="black"/><line class="median" x1="677.4193548387098" y1="212.09606830666667" x2="967.741935483871" y2="212.09606830666667" stroke-width="1" stroke="black"/><g class="whisker" transform="translate(427.4193548387097,0)"><line class="median" x1="0" y1="284.7878279733333" x2="145.16129032258064" y2="284.7878279733333" stroke-width="1" stroke="black"/><line class="median" x1="0" y1="9.415606880000041" x2="145.16129032258064" y2="9.415606880000041" stroke-width="1" stroke="black"/></g><g class="whisker" transform="translate(750.0000000000001,0)"><line class="median" x1="0" y1="263.8186828266667" x2="145.16129032258064" y2="263.8186828266667" stroke-width="1" stroke="black"/><line class="median" x1="0" y1="181.76767708" x2="145.16129032258064" y2="181.76767708" stroke-width="1" stroke="black"/></g></g></svg>