<?xml version="1.0" standalone="no"?>
<svg xmlns="http://www.w3.org/2000/svg" width="1120" height="600.8166656494141"><g transform="translate(70,20)"><g class="x axis" transform="translate(0,400)" fill="none" font-size="10" font-family="sans-serif" text-anchor="middle"><path class="domain" stroke="#000" d="M0.5,6V0.5H1000.5V6"/><g class="tick" opacity="1" transform="translate(90.16393442622952,0)"><line stroke="#000" y2="6"/><text fill="#000" y="9" dy="-0.5em" style="text-anchor: end;" dx="-.8em" transform="rotate(-90)">Patch Reef (n=7)</text></g><g class="tick" opacity="1" transform="translate(254.09836065573768,0)"><line stroke="#000" y2="6"/><text fill="#000" y="9" dy="-0.5em" style="text-anchor: end;" dx="-.8em" transform="rotate(-90)">Reef Rubble (n=6)</text></g><g class="tick" opacity="1" transform="translate(418.03278688524586,0)"><line stroke="#000" y2="6"/><text fill="#000" y="9" dy="-0.5em" style="text-anchor: end;" dx="-.8em" transform="rotate(-90)">Rocks (n=8)</text></g><g class="tick" opacity="1" transform="translate(581.967213114754,0)"><line stroke="#000" y2="6"/><text fill="#000" y="9" dy="-0.5em" style="text-anchor: end;" dx="-.8em" transform="rotate(-90)">Rocky Reef (n=10)</text></g><g class="tick" opacity="1" transform="translate(745.9016393442622,0)"><line stroke="#000" y2="6"/><text fill="#000" y="9" dy="-0.5em" style="text-anchor: end;" dx="-.8em" transform="rotate(-90)">Seagrass (n=5)</text></g><g class="tick" opacity="1" transform="translate(909.8360655737704,0)"><line stroke="#000" y2="6"/><text fill="#000" y="9" dy="-0.5em" style="text-anchor: end;" dx="-.8em" transform="rotate(-90)">Spur &amp; Groove Reef (n=7)</text></g></g><g class="y axis" fill="none" font-size="10" font-family="sans-serif" text-anchor="end"><path class="domain" stroke="#000" d="M-6,400.5H0.5V0.5H-6"/><g class="tick" opacity="1" transform="translate(0,400.5)"><line stroke="#000" x2="-6"/><text fill="#000" x="-9" dy="0.32em">1.0</text></g><g class="tick" opacity="1" transform="translate(0,373.8333333333333)"><line stroke="#000" x2="-6"/><text fill="#000" x="-9" dy="0.32em">1.2</text></g><g class="tick" opacity="1" transform="translate(0,347.1666666666667)"><line stroke="#000" x2="-6"/><text fill="#000" x="-9" dy="0.32em">1.4</text></g><g class="tick" opacity="1" transform="translate(0,320.5)"><line stroke="#000" x2="-6"/><text fill="#000" x="-9" dy="0.32em">1.6</text></g><g class="tick" opacity="1" transform="translate(0,293.8333333333333)"><line stroke="#000" x2="-6"/><text fill="#000" x="-9" dy="0.32em">1.8</text></g><g class="tick" opacity="1" transform="translate(0,267.1666666666667)"><line stroke="#000" x2="-6"/><text fill="#000" x="-9" dy="0.32em">2.0</text></g><g class="tick" opacity="1" transform="translate(0,240.49999999999997)"><line stroke="#000" x2="-6"/><text fill="#000" x="-9" dy="0.32em">2.2</text></g><g class="tick" opacity="1" transform="translate(0,213.83333333333334)"><line stroke="#000" x2="-6"/><text fill="#000" x="-9" dy="0.32em">2.4</text></g><g class="tick" opacity="1" transform="translate(0,187.16666666666666)"><line stroke="#000" x2="-6"/><text fill="#000" x="-9" dy="0.32em">2.6</text></g><g class="tick" opacity="1" transform="translate(0,160.5)"><line stroke="#000" x2="-6"/><text fill="#000" x="-9" dy="0.32em">2.8</text></g><g class="tick" opacity="1" transform="translate(0,133.83333333333337)"><line stroke="#000" x2="-6"/><text fill="#000" x="-9" dy="0.32em">3.0</text></g><g class="tick" opacity="1" transform="translate(0,107.16666666666663)"><line stroke="#000" x2="-6"/><text fill="#000" x="-9" dy="0.32em">3.2</text></g><g class="tick" opacity="1" transform="translate(0,80.5)"><line stroke="#000" x2="-6"/><text fill="#000" x="-9" dy="0.32em">3.4</text></g><g class="tick" opacity="1" transform="translate(0,53.833333333333314)"><line stroke="#000" x2="-6"/><text fill="#000" x="-9" dy="0.32em">3.6</text></g><g class="tick" opacity="1" transform="translate(0,27.166666666666686)"><line stroke="#000" x2="-6"/><text fill="#000" x="-9" dy="0.32em">3.8</text></g><g class="tick" opacity="1" transform="translate(0,0.5)"><line stroke="#000" x2="-6"/><text fill="#000" x="-9" dy="0.32em">4.0</text></g></g><text class="x label" text-anchor="middle" style="font: 12px sans-serif;" transform="translate(500,570.8166656494141)">Reef_Habitat</text><text class="y label" text-anchor="middle" style="font: 12px sans-serif;" transform="translate(-50,200)rotate(-90)">faith_pd</text><line class="center" x1="90.16393442622952" y1="283.19333232" x2="90.16393442622952" y2="55.13339516000002" stroke-dasharray="2,2" stroke-width="1" stroke="black"/><line class="center" x1="254.09836065573768" y1="267.2559364133333" x2="254.09836065573768" y2="128.38259917333335" stroke-dasharray="2,2" stroke-width="1" stroke="black"/><g class="outlier" transform="translate(90.16393442622952,0)"/><g class="whisker" transform="translate(53.27868852459017,0)"><line class="median" x1="0" y1="283.19333232" x2="73.77049180327869" y2="283.19333232" stroke-width="1" stroke="black"/><line class="median" x1="0" y1="55.13339516000002" x2="73.77049180327869" y2="55.13339516000002" stroke-width="1" stroke="black"/></g><g class="whisker" transform="translate(217.21311475409834,0)"><line class="median" x1="0" y1="267.2559364133333" x2="73.77049180327869" y2="267.2559364133333" stroke-width="1" stroke="black"/><line class="median" x1="0" y1="128.38259917333335" x2="73.77049180327869" y2="128.38259917333335" stroke-width="1" stroke="black"/></g><g class="outlier" transform="translate(254.09836065573768,0)"><circle r="4" stroke-width="1" stroke="black" stroke-opacity="0.3" fill="black" fill-opacity="0.33" cx="0" cy="380.52198494666663"/></g><line class="center" x1="418.03278688524586" y1="263.8186828266667" x2="418.03278688524586" y2="106.83019644000001" stroke-dasharray="2,2" stroke-width="1" stroke="black"/><line class="center" x1="581.967213114754" y1="284.7878279733333" x2="581.967213114754" y2="11.050964506666674" stroke-dasharray="2,2" stroke-width="1" stroke="black"/><line class="center" x1="745.9016393442622" y1="164.6614408" x2="745.9016393442622" y2="9.415606880000041" stroke-dasharray="2,2" stroke-width="1" stroke="black"/><line class="center" x1="909.8360655737704" y1="279.7398952" x2="909.8360655737704" y2="106.15019819999998" stroke-dasharray="2,2" stroke-width="1" stroke="black"/><g class="outlier" transform="translate(418.03278688524586,0)"/><g class="outlier" transform="translate(581.967213114754,0)"/><g class="outlier" transform="translate(745.9016393442622,0)"/><g class="outlier" transform="translate(909.8360655737704,0)"/><rect class="box" x="16.39344262295083" y="127.73001756666667" width="147.54098360655738" height="76.30865559999998" fill="white" stroke-width="1" stroke="black"/><rect class="box" x="180.327868852459" y="202.55406702666664" width="147.54098360655738" height="61.12998782" fill="white" stroke-width="1" stroke="black"/><rect class="box" x="344.2622950819672" y="149.92919421333332" width="147.54098360655738" height="66.52164346666669" fill="white" stroke-width="1" stroke="black"/><rect class="box" x="508.19672131147536" y="67.87177495999998" width="147.54098360655738" height="152.51694655" fill="white" stroke-width="1" stroke="black"/><rect class="box" x="672.1311475409835" y="85.42766752" width="147.54098360655738" height="77.75330789333336" fill="white" stroke-width="1" stroke="black"/><rect class="box" x="836.0655737704917" y="146.49727263333338" width="147.54098360655738" height="72.04577880666662" fill="white" stroke-width="1" stroke="black"/><line class="median" x1="16.39344262295083" y1="169.79357993333332" x2="163.9344262295082" y2="169.79357993333332" stroke-width="1" stroke="black"/><line class="median" x1="180.327868852459" y1="237.06599176666668" x2="327.86885245901635" y2="237.06599176666668" stroke-width="1" stroke="black"/><line class="median" x1="344.2622950819672" y1="202.3191857" x2="491.80327868852453" y2="202.3191857" stroke-width="1" stroke="black"/><line class="median" x1="508.19672131147536" y1="168.3442938666667" x2="655.7377049180327" y2="168.3442938666667" stroke-width="1" stroke="black"/><line class="median" x1="672.1311475409835" y1="108.08589883999997" x2="819.6721311475409" y2="108.08589883999997" stroke-width="1" stroke="black"/><line class="median" x1="836.0655737704917" y1="150.14959996" x2="983.6065573770491" y2="150.14959996" stroke-width="1" stroke="black"/><g class="whisker" transform="translate(381.1475409836065,0)"><line class="median" x1="0" y1="263.8186828266667" x2="73.77049180327869" y2="263.8186828266667" stroke-width="1" stroke="black"/><line class="median" x1="0" y1="106.83019644000001" x2="73.77049180327869" y2="106.83019644000001" stroke-width="1" stroke="black"/></g><g class="whisker" transform="translate(545.0819672131147,0)"><line class="median" x1="0" y1="284.7878279733333" x2="73.77049180327869" y2="284.7878279733333" stroke-width="1" stroke="black"/><line class="median" x1="0" y1="11.050964506666674" x2="73.77049180327869" y2="11.050964506666674" stroke-width="1" stroke="black"/></g><g class="whisker" transform="translate(709.0163934426229,0)"><line class="median" x1="0" y1="164.6614408" x2="73.77049180327869" y2="164.6614408" stroke-width="1" stroke="black"/><line class="median" x1="0" y1="9.415606880000041" x2="73.77049180327869" y2="9.415606880000041" stroke-width="1" stroke="black"/></g><g class="whisker" transform="translate(872.950819672131,0)"><line class="median" x1="0" y1="279.7398952" x2="73.77049180327869" y2="279.7398952" stroke-width="1" stroke="black"/><line class="median" x1="0" y1="106.15019819999998" x2="73.77049180327869" y2="106.15019819999998" stroke-width="1" stroke="black"/></g></g></svg>