<?xml version="1.0" standalone="no"?>
<svg xmlns="http://www.w3.org/2000/svg" width="1120" height="633.0166625976562"><g transform="translate(70,20)"><g class="x axis" transform="translate(0,400)" fill="none" font-size="10" font-family="sans-serif" text-anchor="middle"><path class="domain" stroke="#000" d="M0.5,6V0.5H1000.5V6"/><g class="tick" opacity="1" transform="translate(60.439560439560374,0)"><line stroke="#000" y2="6"/><text fill="#000" y="9" dy="-0.5em" style="text-anchor: end;" dx="-.8em" transform="rotate(-90)">17.929801, -66.158912 (n=2)</text></g><g class="tick" opacity="1" transform="translate(170.32967032967028,0)"><line stroke="#000" y2="6"/><text fill="#000" y="9" dy="-0.5em" style="text-anchor: end;" dx="-.8em" transform="rotate(-90)">17.934784, -66.957102 (n=3)</text></g><g class="tick" opacity="1" transform="translate(280.21978021978015,0)"><line stroke="#000" y2="6"/><text fill="#000" y="9" dy="-0.5em" style="text-anchor: end;" dx="-.8em" transform="rotate(-90)">17.964016, -66.609962 (n=2)</text></g><g class="tick" opacity="1" transform="translate(390.10989010989005,0)"><line stroke="#000" y2="6"/><text fill="#000" y="9" dy="-0.5em" style="text-anchor: end;" dx="-.8em" transform="rotate(-90)">17.9724027, -66.6179076 (n=1)</text></g><g class="tick" opacity="1" transform="translate(499.99999999999994,0)"><line stroke="#000" y2="6"/><text fill="#000" y="9" dy="-0.5em" style="text-anchor: end;" dx="-.8em" transform="rotate(-90)">18.218831, -65.604282 (n=9)</text></g><g class="tick" opacity="1" transform="translate(609.8901098901099,0)"><line stroke="#000" y2="6"/><text fill="#000" y="9" dy="-0.5em" style="text-anchor: end;" dx="-.8em" transform="rotate(-90)">18.302451, -65.309386 (n=6)</text></g><g class="tick" opacity="1" transform="translate(719.7802197802198,0)"><line stroke="#000" y2="6"/><text fill="#000" y="9" dy="-0.5em" style="text-anchor: end;" dx="-.8em" transform="rotate(-90)">18.343114, -67.260138 (n=10)</text></g><g class="tick" opacity="1" transform="translate(829.6703296703297,0)"><line stroke="#000" y2="6"/><text fill="#000" y="9" dy="-0.5em" style="text-anchor: end;" dx="-.8em" transform="rotate(-90)">18.387573, -65.719616 (n=5)</text></g><g class="tick" opacity="1" transform="translate(939.5604395604396,0)"><line stroke="#000" y2="6"/><text fill="#000" y="9" dy="-0.5em" style="text-anchor: end;" dx="-.8em" transform="rotate(-90)">18.515768, -67.100173 (n=5)</text></g></g><g class="y axis" fill="none" font-size="10" font-family="sans-serif" text-anchor="end"><path class="domain" stroke="#000" d="M-6,400.5H0.5V0.5H-6"/><g class="tick" opacity="1" transform="translate(0,400.5)"><line stroke="#000" x2="-6"/><text fill="#000" x="-9" dy="0.32em">1.0</text></g><g class="tick" opacity="1" transform="translate(0,373.8333333333333)"><line stroke="#000" x2="-6"/><text fill="#000" x="-9" dy="0.32em">1.2</text></g><g class="tick" opacity="1" transform="translate(0,347.1666666666667)"><line stroke="#000" x2="-6"/><text fill="#000" x="-9" dy="0.32em">1.4</text></g><g class="tick" opacity="1" transform="translate(0,320.5)"><line stroke="#000" x2="-6"/><text fill="#000" x="-9" dy="0.32em">1.6</text></g><g class="tick" opacity="1" transform="translate(0,293.8333333333333)"><line stroke="#000" x2="-6"/><text fill="#000" x="-9" dy="0.32em">1.8</text></g><g class="tick" opacity="1" transform="translate(0,267.1666666666667)"><line stroke="#000" x2="-6"/><text fill="#000" x="-9" dy="0.32em">2.0</text></g><g class="tick" opacity="1" transform="translate(0,240.49999999999997)"><line stroke="#000" x2="-6"/><text fill="#000" x="-9" dy="0.32em">2.2</text></g><g class="tick" opacity="1" transform="translate(0,213.83333333333334)"><line stroke="#000" x2="-6"/><text fill="#000" x="-9" dy="0.32em">2.4</text></g><g class="tick" opacity="1" transform="translate(0,187.16666666666666)"><line stroke="#000" x2="-6"/><text fill="#000" x="-9" dy="0.32em">2.6</text></g><g class="tick" opacity="1" transform="translate(0,160.5)"><line stroke="#000" x2="-6"/><text fill="#000" x="-9" dy="0.32em">2.8</text></g><g class="tick" opacity="1" transform="translate(0,133.83333333333337)"><line stroke="#000" x2="-6"/><text fill="#000" x="-9" dy="0.32em">3.0</text></g><g class="tick" opacity="1" transform="translate(0,107.16666666666663)"><line stroke="#000" x2="-6"/><text fill="#000" x="-9" dy="0.32em">3.2</text></g><g class="tick" opacity="1" transform="translate(0,80.5)"><line stroke="#000" x2="-6"/><text fill="#000" x="-9" dy="0.32em">3.4</text></g><g class="tick" opacity="1" transform="translate(0,53.833333333333314)"><line stroke="#000" x2="-6"/><text fill="#000" x="-9" dy="0.32em">3.6</text></g><g class="tick" opacity="1" transform="translate(0,27.166666666666686)"><line stroke="#000" x2="-6"/><text fill="#000" x="-9" dy="0.32em">3.8</text></g><g class="tick" opacity="1" transform="translate(0,0.5)"><line stroke="#000" x2="-6"/><text fill="#000" x="-9" dy="0.32em">4.0</text></g></g><text class="x label" text-anchor="middle" style="font: 12px sans-serif;" transform="translate(500,603.0166625976562)">Latitude_Longitude</text><text class="y label" text-anchor="middle" style="font: 12px sans-serif;" transform="translate(-50,200)rotate(-90)">faith_pd</text><g class="outlier" transform="translate(60.439560439560374,0)"/><g class="outlier" transform="translate(170.32967032967028,0)"/><g class="outlier" transform="translate(280.21978021978015,0)"/><g class="outlier" transform="translate(390.10989010989005,0)"/><g class="outlier" transform="translate(499.99999999999994,0)"><circle r="4" stroke-width="1" stroke="black" stroke-opacity="0.3" fill="black" fill-opacity="0.33" cx="0" cy="283.19333232"/><circle r="4" stroke-width="1" stroke="black" stroke-opacity="0.3" fill="black" fill-opacity="0.33" cx="0" cy="55.13339516000002"/></g><g class="outlier" transform="translate(609.8901098901099,0)"><circle r="4" stroke-width="1" stroke="black" stroke-opacity="0.3" fill="black" fill-opacity="0.33" cx="0" cy="380.52198494666663"/></g><line class="center" x1="390.10989010989005" y1="194.26869006666666" x2="390.10989010989005" y2="194.26869006666666" stroke-dasharray="2,2" stroke-width="1" stroke="black"/><line class="center" x1="499.99999999999994" y1="226.30966925333337" x2="499.99999999999994" y2="100.87339459999998" stroke-dasharray="2,2" stroke-width="1" stroke="black"/><line class="center" x1="609.8901098901099" y1="267.2559364133333" x2="609.8901098901099" y2="128.38259917333335" stroke-dasharray="2,2" stroke-width="1" stroke="black"/><line class="center" x1="170.32967032967028" y1="229.5151458" x2="170.32967032967028" y2="158.21712761333333" stroke-dasharray="2,2" stroke-width="1" stroke="black"/><line class="center" x1="60.439560439560374" y1="212.09606830666667" x2="60.439560439560374" y2="106.83019644000001" stroke-dasharray="2,2" stroke-width="1" stroke="black"/><line class="center" x1="939.5604395604396" y1="279.7398952" x2="939.5604395604396" y2="106.15019819999998" stroke-dasharray="2,2" stroke-width="1" stroke="black"/><line class="center" x1="829.6703296703297" y1="164.6614408" x2="829.6703296703297" y2="9.415606880000041" stroke-dasharray="2,2" stroke-width="1" stroke="black"/><line class="center" x1="280.21978021978015" y1="263.8186828266667" x2="280.21978021978015" y2="125.06539401333333" stroke-dasharray="2,2" stroke-width="1" stroke="black"/><line class="center" x1="719.7802197802198" y1="284.7878279733333" x2="719.7802197802198" y2="11.050964506666674" stroke-dasharray="2,2" stroke-width="1" stroke="black"/><g class="whisker" transform="translate(365.38461538461536,0)"><line class="median" x1="0" y1="194.26869006666666" x2="49.45054945054945" y2="194.26869006666666" stroke-width="1" stroke="black"/><line class="median" x1="0" y1="194.26869006666666" x2="49.45054945054945" y2="194.26869006666666" stroke-width="1" stroke="black"/></g><g class="whisker" transform="translate(475.27472527472526,0)"><line class="median" x1="0" y1="226.30966925333337" x2="49.45054945054945" y2="226.30966925333337" stroke-width="1" stroke="black"/><line class="median" x1="0" y1="100.87339459999998" x2="49.45054945054945" y2="100.87339459999998" stroke-width="1" stroke="black"/></g><g class="whisker" transform="translate(585.1648351648352,0)"><line class="median" x1="0" y1="267.2559364133333" x2="49.45054945054945" y2="267.2559364133333" stroke-width="1" stroke="black"/><line class="median" x1="0" y1="128.38259917333335" x2="49.45054945054945" y2="128.38259917333335" stroke-width="1" stroke="black"/></g><g class="whisker" transform="translate(145.60439560439553,0)"><line class="median" x1="0" y1="229.5151458" x2="49.45054945054945" y2="229.5151458" stroke-width="1" stroke="black"/><line class="median" x1="0" y1="158.21712761333333" x2="49.45054945054945" y2="158.21712761333333" stroke-width="1" stroke="black"/></g><g class="whisker" transform="translate(35.71428571428565,0)"><line class="median" x1="0" y1="212.09606830666667" x2="49.45054945054945" y2="212.09606830666667" stroke-width="1" stroke="black"/><line class="median" x1="0" y1="106.83019644000001" x2="49.45054945054945" y2="106.83019644000001" stroke-width="1" stroke="black"/></g><g class="whisker" transform="translate(914.8351648351648,0)"><line class="median" x1="0" y1="279.7398952" x2="49.45054945054945" y2="279.7398952" stroke-width="1" stroke="black"/><line class="median" x1="0" y1="106.15019819999998" x2="49.45054945054945" y2="106.15019819999998" stroke-width="1" stroke="black"/></g><g class="whisker" transform="translate(804.945054945055,0)"><line class="median" x1="0" y1="164.6614408" x2="49.45054945054945" y2="164.6614408" stroke-width="1" stroke="black"/><line class="median" x1="0" y1="9.415606880000041" x2="49.45054945054945" y2="9.415606880000041" stroke-width="1" stroke="black"/></g><g class="whisker" transform="translate(255.49450549450543,0)"><line class="median" x1="0" y1="263.8186828266667" x2="49.45054945054945" y2="263.8186828266667" stroke-width="1" stroke="black"/><line class="median" x1="0" y1="125.06539401333333" x2="49.45054945054945" y2="125.06539401333333" stroke-width="1" stroke="black"/></g><g class="whisker" transform="translate(695.054945054945,0)"><line class="median" x1="0" y1="284.7878279733333" x2="49.45054945054945" y2="284.7878279733333" stroke-width="1" stroke="black"/><line class="median" x1="0" y1="11.050964506666674" x2="49.45054945054945" y2="11.050964506666674" stroke-width="1" stroke="black"/></g><rect class="box" x="230.76923076923072" y="159.75371621666667" width="98.9010989010989" height="69.37664440666668" fill="white" stroke-width="1" stroke="black"/><rect class="box" x="340.6593406593406" y="194.26869006666666" width="98.9010989010989" height="0" fill="white" stroke-width="1" stroke="black"/><rect class="box" x="450.5494505494505" y="146.6707820533333" width="98.9010989010989" height="35.09689502666669" fill="white" stroke-width="1" stroke="black"/><rect class="box" x="560.4395604395604" y="202.55406702666664" width="98.9010989010989" height="61.12998782" fill="white" stroke-width="1" stroke="black"/><rect class="box" x="120.87912087912082" y="184.2934044733333" width="98.9010989010989" height="35.64900909333335" fill="white" stroke-width="1" stroke="black"/><rect class="box" x="10.989010989010922" y="133.14666440666667" width="98.9010989010989" height="52.63293593333327" fill="white" stroke-width="1" stroke="black"/><rect class="box" x="890.1098901098901" y="146.32376321333336" width="98.9010989010989" height="91.27431911999997" fill="white" stroke-width="1" stroke="black"/><rect class="box" x="780.2197802197802" y="85.42766752" width="98.9010989010989" height="77.75330789333336" fill="white" stroke-width="1" stroke="black"/><rect class="box" x="670.3296703296703" y="67.87177495999998" width="98.9010989010989" height="152.51694655" fill="white" stroke-width="1" stroke="black"/><line class="median" x1="230.76923076923072" y1="194.44203842000002" x2="329.67032967032964" y2="194.44203842000002" stroke-width="1" stroke="black"/><line class="median" x1="340.6593406593406" y1="194.26869006666666" x2="439.56043956043953" y2="194.26869006666666" stroke-width="1" stroke="black"/><line class="median" x1="450.5494505494505" y1="154.58664053333334" x2="549.4505494505494" y2="154.58664053333334" stroke-width="1" stroke="black"/><line class="median" x1="560.4395604395604" y1="237.06599176666668" x2="659.3406593406593" y2="237.06599176666668" stroke-width="1" stroke="black"/><line class="median" x1="120.87912087912082" y1="210.36968133333332" x2="219.78021978021974" y2="210.36968133333332" stroke-width="1" stroke="black"/><line class="median" x1="10.989010989010922" y1="159.4631323733333" x2="109.89010989010983" y2="159.4631323733333" stroke-width="1" stroke="black"/><line class="median" x1="890.1098901098901" y1="199.48802054666666" x2="989.010989010989" y2="199.48802054666666" stroke-width="1" stroke="black"/><line class="median" x1="780.2197802197802" y1="108.08589883999997" x2="879.1208791208791" y2="108.08589883999997" stroke-width="1" stroke="black"/><line class="median" x1="670.3296703296703" y1="168.3442938666667" x2="769.2307692307692" y2="168.3442938666667" stroke-width="1" stroke="black"/><g class="outlier" transform="translate(719.7802197802198,0)"/><g class="outlier" transform="translate(829.6703296703297,0)"/><g class="outlier" transform="translate(939.5604395604396,0)"/></g></svg>