<?xml version="1.0" standalone="no"?>
<svg xmlns="http://www.w3.org/2000/svg" width="1120" height="633.0166625976562"><g transform="translate(70,20)"><g class="x axis" transform="translate(0,400)" fill="none" font-size="10" font-family="sans-serif" text-anchor="middle"><path class="domain" stroke="#000" d="M0.5,6V0.5H1000.5V6"/><g class="tick" opacity="1" transform="translate(60.439560439560374,0)"><line stroke="#000" y2="6"/><text fill="#000" y="9" dy="-0.5em" style="text-anchor: end;" dx="-.8em" transform="rotate(-90)">17.929801, -66.158912 (n=2)</text></g><g class="tick" opacity="1" transform="translate(170.32967032967028,0)"><line stroke="#000" y2="6"/><text fill="#000" y="9" dy="-0.5em" style="text-anchor: end;" dx="-.8em" transform="rotate(-90)">17.934784, -66.957102 (n=3)</text></g><g class="tick" opacity="1" transform="translate(280.21978021978015,0)"><line stroke="#000" y2="6"/><text fill="#000" y="9" dy="-0.5em" style="text-anchor: end;" dx="-.8em" transform="rotate(-90)">17.964016, -66.609962 (n=2)</text></g><g class="tick" opacity="1" transform="translate(390.10989010989005,0)"><line stroke="#000" y2="6"/><text fill="#000" y="9" dy="-0.5em" style="text-anchor: end;" dx="-.8em" transform="rotate(-90)">17.9724027, -66.6179076 (n=1)</text></g><g class="tick" opacity="1" transform="translate(499.99999999999994,0)"><line stroke="#000" y2="6"/><text fill="#000" y="9" dy="-0.5em" style="text-anchor: end;" dx="-.8em" transform="rotate(-90)">18.218831, -65.604282 (n=9)</text></g><g class="tick" opacity="1" transform="translate(609.8901098901099,0)"><line stroke="#000" y2="6"/><text fill="#000" y="9" dy="-0.5em" style="text-anchor: end;" dx="-.8em" transform="rotate(-90)">18.302451, -65.309386 (n=6)</text></g><g class="tick" opacity="1" transform="translate(719.7802197802198,0)"><line stroke="#000" y2="6"/><text fill="#000" y="9" dy="-0.5em" style="text-anchor: end;" dx="-.8em" transform="rotate(-90)">18.343114, -67.260138 (n=10)</text></g><g class="tick" opacity="1" transform="translate(829.6703296703297,0)"><line stroke="#000" y2="6"/><text fill="#000" y="9" dy="-0.5em" style="text-anchor: end;" dx="-.8em" transform="rotate(-90)">18.387573, -65.719616 (n=5)</text></g><g class="tick" opacity="1" transform="translate(939.5604395604396,0)"><line stroke="#000" y2="6"/><text fill="#000" y="9" dy="-0.5em" style="text-anchor: end;" dx="-.8em" transform="rotate(-90)">18.515768, -67.100173 (n=5)</text></g></g><g class="y axis" fill="none" font-size="10" font-family="sans-serif" text-anchor="end"><path class="domain" stroke="#000" d="M-6,400.5H0.5V0.5H-6"/><g class="tick" opacity="1" transform="translate(0,400.5)"><line stroke="#000" x2="-6"/><text fill="#000" x="-9" dy="0.32em">1.0</text></g><g class="tick" opacity="1" transform="translate(0,343.3571428571429)"><line stroke="#000" x2="-6"/><text fill="#000" x="-9" dy="0.32em">1.5</text></g><g class="tick" opacity="1" transform="translate(0,286.2142857142857)"><line stroke="#000" x2="-6"/><text fill="#000" x="-9" dy="0.32em">2.0</text></g><g class="tick" opacity="1" transform="translate(0,229.07142857142858)"><line stroke="#000" x2="-6"/><text fill="#000" x="-9" dy="0.32em">2.5</text></g><g class="tick" opacity="1" transform="translate(0,171.92857142857144)"><line stroke="#000" x2="-6"/><text fill="#000" x="-9" dy="0.32em">3.0</text></g><g class="tick" opacity="1" transform="translate(0,114.78571428571428)"><line stroke="#000" x2="-6"/><text fill="#000" x="-9" dy="0.32em">3.5</text></g><g class="tick" opacity="1" transform="translate(0,57.64285714285717)"><line stroke="#000" x2="-6"/><text fill="#000" x="-9" dy="0.32em">4.0</text></g><g class="tick" opacity="1" transform="translate(0,0.5)"><line stroke="#000" x2="-6"/><text fill="#000" x="-9" dy="0.32em">4.5</text></g></g><text class="x label" text-anchor="middle" style="font: 12px sans-serif;" transform="translate(500,603.0166625976562)">Latitude_Longitude</text><text class="y label" text-anchor="middle" style="font: 12px sans-serif;" transform="translate(-50,200)rotate(-90)">faith_pd</text><g class="outlier" transform="translate(60.439560439560374,0)"/><line class="center" x1="390.10989010989005" y1="231.46387365714287" x2="390.10989010989005" y2="231.46387365714287" stroke-dasharray="2,2" stroke-width="1" stroke="black"/><line class="center" x1="499.99999999999994" y1="280.3739157828571" x2="499.99999999999994" y2="119.66002689142857" stroke-dasharray="2,2" stroke-width="1" stroke="black"/><line class="center" x1="609.8901098901099" y1="288.3727818514286" x2="609.8901098901099" y2="170.46371874285714" stroke-dasharray="2,2" stroke-width="1" stroke="black"/><line class="center" x1="280.21978021978015" y1="241.75479922285714" x2="280.21978021978015" y2="194.11048630857147" stroke-dasharray="2,2" stroke-width="1" stroke="black"/><line class="center" x1="719.7802197802198" y1="306.19868857142853" x2="719.7802197802198" y2="47.169686365714256" stroke-dasharray="2,2" stroke-width="1" stroke="black"/><line class="center" x1="829.6703296703297" y1="221.50087370285715" x2="829.6703296703297" y2="46.42290405714289" stroke-dasharray="2,2" stroke-width="1" stroke="black"/><line class="center" x1="170.32967032967028" y1="242.66557202285713" x2="170.32967032967028" y2="207.35988976000002" stroke-dasharray="2,2" stroke-width="1" stroke="black"/><line class="center" x1="60.439560439560374" y1="237.97427206857142" x2="60.439560439560374" y2="147.65101797714286" stroke-dasharray="2,2" stroke-width="1" stroke="black"/><line class="center" x1="939.5604395604396" y1="297.40043918857145" x2="939.5604395604396" y2="149.08622383999997" stroke-dasharray="2,2" stroke-width="1" stroke="black"/><g class="outlier" transform="translate(170.32967032967028,0)"/><g class="outlier" transform="translate(280.21978021978015,0)"/><g class="outlier" transform="translate(390.10989010989005,0)"/><g class="outlier" transform="translate(499.99999999999994,0)"/><g class="outlier" transform="translate(609.8901098901099,0)"><circle r="4" stroke-width="1" stroke="black" stroke-opacity="0.3" fill="black" fill-opacity="0.33" cx="0" cy="382.77710181714286"/></g><rect class="box" x="230.76923076923072" y="206.02156453714286" width="98.9010989010989" height="23.822156457142853" fill="white" stroke-width="1" stroke="black"/><rect class="box" x="340.6593406593406" y="231.46387365714287" width="98.9010989010989" height="0" fill="white" stroke-width="1" stroke="black"/><rect class="box" x="450.5494505494505" y="171.04509528" width="98.9010989010989" height="65.19489835428573" fill="white" stroke-width="1" stroke="black"/><rect class="box" x="560.4395604395604" y="233.51637432285713" width="98.9010989010989" height="53.75313506857145" fill="white" stroke-width="1" stroke="black"/><rect class="box" x="670.3296703296703" y="122.3107143457143" width="98.9010989010989" height="141.20711807714287" fill="white" stroke-width="1" stroke="black"/><rect class="box" x="120.87912087912082" y="218.55544939428572" width="98.9010989010989" height="17.652841131428545" fill="white" stroke-width="1" stroke="black"/><rect class="box" x="10.989010989010922" y="170.23183150000003" width="98.9010989010989" height="45.161627045714226" fill="white" stroke-width="1" stroke="black"/><rect class="box" x="890.1098901098901" y="182.01656731428574" width="98.9010989010989" height="78.77081697142859" fill="white" stroke-width="1" stroke="black"/><rect class="box" x="780.2197802197802" y="128.68141381714287" width="98.9010989010989" height="68.57140226285713" fill="white" stroke-width="1" stroke="black"/><line class="median" x1="230.76923076923072" y1="217.9326427657143" x2="329.67032967032964" y2="217.9326427657143" stroke-width="1" stroke="black"/><line class="median" x1="340.6593406593406" y1="231.46387365714287" x2="439.56043956043953" y2="231.46387365714287" stroke-width="1" stroke="black"/><line class="median" x1="450.5494505494505" y1="200.86371810285715" x2="549.4505494505494" y2="200.86371810285715" stroke-width="1" stroke="black"/><line class="median" x1="560.4395604395604" y1="278.5631772342857" x2="659.3406593406593" y2="278.5631772342857" stroke-width="1" stroke="black"/><line class="median" x1="670.3296703296703" y1="200.49407227428568" x2="769.2307692307692" y2="200.49407227428568" stroke-width="1" stroke="black"/><line class="median" x1="120.87912087912082" y1="229.75100902857142" x2="219.78021978021974" y2="229.75100902857142" stroke-width="1" stroke="black"/><line class="median" x1="10.989010989010922" y1="192.81264502285717" x2="109.89010989010983" y2="192.81264502285717" stroke-width="1" stroke="black"/><line class="median" x1="890.1098901098901" y1="211.57471454857142" x2="989.010989010989" y2="211.57471454857142" stroke-width="1" stroke="black"/><line class="median" x1="780.2197802197802" y1="148.6002874857143" x2="879.1208791208791" y2="148.6002874857143" stroke-width="1" stroke="black"/><g class="whisker" transform="translate(365.38461538461536,0)"><line class="median" x1="0" y1="231.46387365714287" x2="49.45054945054945" y2="231.46387365714287" stroke-width="1" stroke="black"/><line class="median" x1="0" y1="231.46387365714287" x2="49.45054945054945" y2="231.46387365714287" stroke-width="1" stroke="black"/></g><g class="whisker" transform="translate(475.27472527472526,0)"><line class="median" x1="0" y1="280.3739157828571" x2="49.45054945054945" y2="280.3739157828571" stroke-width="1" stroke="black"/><line class="median" x1="0" y1="119.66002689142857" x2="49.45054945054945" y2="119.66002689142857" stroke-width="1" stroke="black"/></g><g class="whisker" transform="translate(585.1648351648352,0)"><line class="median" x1="0" y1="288.3727818514286" x2="49.45054945054945" y2="288.3727818514286" stroke-width="1" stroke="black"/><line class="median" x1="0" y1="170.46371874285714" x2="49.45054945054945" y2="170.46371874285714" stroke-width="1" stroke="black"/></g><g class="whisker" transform="translate(255.49450549450543,0)"><line class="median" x1="0" y1="241.75479922285714" x2="49.45054945054945" y2="241.75479922285714" stroke-width="1" stroke="black"/><line class="median" x1="0" y1="194.11048630857147" x2="49.45054945054945" y2="194.11048630857147" stroke-width="1" stroke="black"/></g><g class="whisker" transform="translate(695.054945054945,0)"><line class="median" x1="0" y1="306.19868857142853" x2="49.45054945054945" y2="306.19868857142853" stroke-width="1" stroke="black"/><line class="median" x1="0" y1="47.169686365714256" x2="49.45054945054945" y2="47.169686365714256" stroke-width="1" stroke="black"/></g><g class="whisker" transform="translate(804.945054945055,0)"><line class="median" x1="0" y1="221.50087370285715" x2="49.45054945054945" y2="221.50087370285715" stroke-width="1" stroke="black"/><line class="median" x1="0" y1="46.42290405714289" x2="49.45054945054945" y2="46.42290405714289" stroke-width="1" stroke="black"/></g><g class="whisker" transform="translate(145.60439560439553,0)"><line class="median" x1="0" y1="242.66557202285713" x2="49.45054945054945" y2="242.66557202285713" stroke-width="1" stroke="black"/><line class="median" x1="0" y1="207.35988976000002" x2="49.45054945054945" y2="207.35988976000002" stroke-width="1" stroke="black"/></g><g class="whisker" transform="translate(35.71428571428565,0)"><line class="median" x1="0" y1="237.97427206857142" x2="49.45054945054945" y2="237.97427206857142" stroke-width="1" stroke="black"/><line class="median" x1="0" y1="147.65101797714286" x2="49.45054945054945" y2="147.65101797714286" stroke-width="1" stroke="black"/></g><g class="whisker" transform="translate(914.8351648351648,0)"><line class="median" x1="0" y1="297.40043918857145" x2="49.45054945054945" y2="297.40043918857145" stroke-width="1" stroke="black"/><line class="median" x1="0" y1="149.08622383999997" x2="49.45054945054945" y2="149.08622383999997" stroke-width="1" stroke="black"/></g><g class="outlier" transform="translate(719.7802197802198,0)"/><g class="outlier" transform="translate(829.6703296703297,0)"/><g class="outlier" transform="translate(939.5604395604396,0)"/></g></svg>