<?xml version="1.0" standalone="no"?>
<svg xmlns="http://www.w3.org/2000/svg" width="1120" height="600.8166656494141"><g transform="translate(70,20)"><g class="x axis" transform="translate(0,400)" fill="none" font-size="10" font-family="sans-serif" text-anchor="middle"><path class="domain" stroke="#000" d="M0.5,6V0.5H1000.5V6"/><g class="tick" opacity="1" transform="translate(90.16393442622952,0)"><line stroke="#000" y2="6"/><text fill="#000" y="9" dy="-0.5em" style="text-anchor: end;" dx="-.8em" transform="rotate(-90)">Patch Reef (n=7)</text></g><g class="tick" opacity="1" transform="translate(254.09836065573768,0)"><line stroke="#000" y2="6"/><text fill="#000" y="9" dy="-0.5em" style="text-anchor: end;" dx="-.8em" transform="rotate(-90)">Reef Rubble (n=6)</text></g><g class="tick" opacity="1" transform="translate(418.03278688524586,0)"><line stroke="#000" y2="6"/><text fill="#000" y="9" dy="-0.5em" style="text-anchor: end;" dx="-.8em" transform="rotate(-90)">Rocks (n=8)</text></g><g class="tick" opacity="1" transform="translate(581.967213114754,0)"><line stroke="#000" y2="6"/><text fill="#000" y="9" dy="-0.5em" style="text-anchor: end;" dx="-.8em" transform="rotate(-90)">Rocky Reef (n=10)</text></g><g class="tick" opacity="1" transform="translate(745.9016393442622,0)"><line stroke="#000" y2="6"/><text fill="#000" y="9" dy="-0.5em" style="text-anchor: end;" dx="-.8em" transform="rotate(-90)">Seagrass (n=5)</text></g><g class="tick" opacity="1" transform="translate(909.8360655737704,0)"><line stroke="#000" y2="6"/><text fill="#000" y="9" dy="-0.5em" style="text-anchor: end;" dx="-.8em" transform="rotate(-90)">Spur &amp; Groove Reef (n=7)</text></g></g><g class="y axis" fill="none" font-size="10" font-family="sans-serif" text-anchor="end"><path class="domain" stroke="#000" d="M-6,400.5H0.5V0.5H-6"/><g class="tick" opacity="1" transform="translate(0,400.5)"><line stroke="#000" x2="-6"/><text fill="#000" x="-9" dy="0.32em">1.0</text></g><g class="tick" opacity="1" transform="translate(0,343.3571428571429)"><line stroke="#000" x2="-6"/><text fill="#000" x="-9" dy="0.32em">1.5</text></g><g class="tick" opacity="1" transform="translate(0,286.2142857142857)"><line stroke="#000" x2="-6"/><text fill="#000" x="-9" dy="0.32em">2.0</text></g><g class="tick" opacity="1" transform="translate(0,229.07142857142858)"><line stroke="#000" x2="-6"/><text fill="#000" x="-9" dy="0.32em">2.5</text></g><g class="tick" opacity="1" transform="translate(0,171.92857142857144)"><line stroke="#000" x2="-6"/><text fill="#000" x="-9" dy="0.32em">3.0</text></g><g class="tick" opacity="1" transform="translate(0,114.78571428571428)"><line stroke="#000" x2="-6"/><text fill="#000" x="-9" dy="0.32em">3.5</text></g><g class="tick" opacity="1" transform="translate(0,57.64285714285717)"><line stroke="#000" x2="-6"/><text fill="#000" x="-9" dy="0.32em">4.0</text></g><g class="tick" opacity="1" transform="translate(0,0.5)"><line stroke="#000" x2="-6"/><text fill="#000" x="-9" dy="0.32em">4.5</text></g></g><text class="x label" text-anchor="middle" style="font: 12px sans-serif;" transform="translate(500,570.8166656494141)">Reef_Habitat</text><text class="y label" text-anchor="middle" style="font: 12px sans-serif;" transform="translate(-50,200)rotate(-90)">faith_pd</text><g class="outlier" transform="translate(90.16393442622952,0)"/><line class="center" x1="90.16393442622952" y1="280.3739157828571" x2="90.16393442622952" y2="119.66002689142857" stroke-dasharray="2,2" stroke-width="1" stroke="black"/><line class="center" x1="254.09836065573768" y1="288.3727818514286" x2="254.09836065573768" y2="170.46371874285714" stroke-dasharray="2,2" stroke-width="1" stroke="black"/><line class="center" x1="418.03278688524586" y1="242.66557202285713" x2="418.03278688524586" y2="194.11048630857147" stroke-dasharray="2,2" stroke-width="1" stroke="black"/><line class="center" x1="581.967213114754" y1="306.19868857142853" x2="581.967213114754" y2="47.169686365714256" stroke-dasharray="2,2" stroke-width="1" stroke="black"/><line class="center" x1="745.9016393442622" y1="221.50087370285715" x2="745.9016393442622" y2="46.42290405714289" stroke-dasharray="2,2" stroke-width="1" stroke="black"/><line class="center" x1="909.8360655737704" y1="297.40043918857145" x2="909.8360655737704" y2="149.08622383999997" stroke-dasharray="2,2" stroke-width="1" stroke="black"/><g class="outlier" transform="translate(254.09836065573768,0)"><circle r="4" stroke-width="1" stroke="black" stroke-opacity="0.3" fill="black" fill-opacity="0.33" cx="0" cy="382.77710181714286"/></g><g class="outlier" transform="translate(418.03278688524586,0)"><circle r="4" stroke-width="1" stroke="black" stroke-opacity="0.3" fill="black" fill-opacity="0.33" cx="0" cy="147.65101797714286"/></g><g class="outlier" transform="translate(581.967213114754,0)"/><g class="outlier" transform="translate(745.9016393442622,0)"/><g class="outlier" transform="translate(909.8360655737704,0)"/><rect class="box" x="16.39344262295083" y="182.51735773142858" width="147.54098360655738" height="70.19638781714289" fill="white" stroke-width="1" stroke="black"/><rect class="box" x="180.327868852459" y="233.51637432285713" width="147.54098360655738" height="53.75313506857145" fill="white" stroke-width="1" stroke="black"/><rect class="box" x="344.2622950819672" y="204.04753889714289" width="147.54098360655738" height="34.87186495999998" fill="white" stroke-width="1" stroke="black"/><rect class="box" x="508.19672131147536" y="122.3107143457143" width="147.54098360655738" height="141.20711807714287" fill="white" stroke-width="1" stroke="black"/><rect class="box" x="672.1311475409835" y="128.68141381714287" width="147.54098360655738" height="68.57140226285713" fill="white" stroke-width="1" stroke="black"/><rect class="box" x="836.0655737704917" y="176.53083129714284" width="147.54098360655738" height="59.65021811999998" fill="white" stroke-width="1" stroke="black"/><line class="median" x1="16.39344262295083" y1="218.61767685714284" x2="163.9344262295082" y2="218.61767685714284" stroke-width="1" stroke="black"/><line class="median" x1="180.327868852459" y1="278.5631772342857" x2="327.86885245901635" y2="278.5631772342857" stroke-width="1" stroke="black"/><line class="median" x1="344.2622950819672" y1="230.60744134285716" x2="491.80327868852453" y2="230.60744134285716" stroke-width="1" stroke="black"/><line class="median" x1="508.19672131147536" y1="200.49407227428568" x2="655.7377049180327" y2="200.49407227428568" stroke-width="1" stroke="black"/><line class="median" x1="672.1311475409835" y1="148.6002874857143" x2="819.6721311475409" y2="148.6002874857143" stroke-width="1" stroke="black"/><line class="median" x1="836.0655737704917" y1="183.4932605942857" x2="983.6065573770491" y2="183.4932605942857" stroke-width="1" stroke="black"/><g class="whisker" transform="translate(53.27868852459017,0)"><line class="median" x1="0" y1="280.3739157828571" x2="73.77049180327869" y2="280.3739157828571" stroke-width="1" stroke="black"/><line class="median" x1="0" y1="119.66002689142857" x2="73.77049180327869" y2="119.66002689142857" stroke-width="1" stroke="black"/></g><g class="whisker" transform="translate(217.21311475409834,0)"><line class="median" x1="0" y1="288.3727818514286" x2="73.77049180327869" y2="288.3727818514286" stroke-width="1" stroke="black"/><line class="median" x1="0" y1="170.46371874285714" x2="73.77049180327869" y2="170.46371874285714" stroke-width="1" stroke="black"/></g><g class="whisker" transform="translate(381.1475409836065,0)"><line class="median" x1="0" y1="242.66557202285713" x2="73.77049180327869" y2="242.66557202285713" stroke-width="1" stroke="black"/><line class="median" x1="0" y1="194.11048630857147" x2="73.77049180327869" y2="194.11048630857147" stroke-width="1" stroke="black"/></g><g class="whisker" transform="translate(545.0819672131147,0)"><line class="median" x1="0" y1="306.19868857142853" x2="73.77049180327869" y2="306.19868857142853" stroke-width="1" stroke="black"/><line class="median" x1="0" y1="47.169686365714256" x2="73.77049180327869" y2="47.169686365714256" stroke-width="1" stroke="black"/></g><g class="whisker" transform="translate(709.0163934426229,0)"><line class="median" x1="0" y1="221.50087370285715" x2="73.77049180327869" y2="221.50087370285715" stroke-width="1" stroke="black"/><line class="median" x1="0" y1="46.42290405714289" x2="73.77049180327869" y2="46.42290405714289" stroke-width="1" stroke="black"/></g><g class="whisker" transform="translate(872.950819672131,0)"><line class="median" x1="0" y1="297.40043918857145" x2="73.77049180327869" y2="297.40043918857145" stroke-width="1" stroke="black"/><line class="median" x1="0" y1="149.08622383999997" x2="73.77049180327869" y2="149.08622383999997" stroke-width="1" stroke="black"/></g></g></svg>