<?xml version="1.0" standalone="no"?>
<svg xmlns="http://www.w3.org/2000/svg" width="1120" height="550.1999969482422"><g transform="translate(70,20)"><g class="x axis" transform="translate(0,400)" fill="none" font-size="10" font-family="sans-serif" text-anchor="middle"><path class="domain" stroke="#000" d="M0.5,6V0.5H1000.5V6"/><g class="tick" opacity="1" transform="translate(67.90123456790117,0)"><line stroke="#000" y2="6"/><text fill="#000" y="9" dy="-0.5em" style="text-anchor: end;" dx="-.8em" transform="rotate(-90)">Ceiba (n=9)</text></g><g class="tick" opacity="1" transform="translate(191.35802469135797,0)"><line stroke="#000" y2="6"/><text fill="#000" y="9" dy="-0.5em" style="text-anchor: end;" dx="-.8em" transform="rotate(-90)">Culebra (n=6)</text></g><g class="tick" opacity="1" transform="translate(314.8148148148148,0)"><line stroke="#000" y2="6"/><text fill="#000" y="9" dy="-0.5em" style="text-anchor: end;" dx="-.8em" transform="rotate(-90)">Guanica (n=3)</text></g><g class="tick" opacity="1" transform="translate(438.27160493827154,0)"><line stroke="#000" y2="6"/><text fill="#000" y="9" dy="-0.5em" style="text-anchor: end;" dx="-.8em" transform="rotate(-90)">Guayama (n=2)</text></g><g class="tick" opacity="1" transform="translate(561.7283950617284,0)"><line stroke="#000" y2="6"/><text fill="#000" y="9" dy="-0.5em" style="text-anchor: end;" dx="-.8em" transform="rotate(-90)">Isabella (n=5)</text></g><g class="tick" opacity="1" transform="translate(685.1851851851851,0)"><line stroke="#000" y2="6"/><text fill="#000" y="9" dy="-0.5em" style="text-anchor: end;" dx="-.8em" transform="rotate(-90)">Luquillo (n=5)</text></g><g class="tick" opacity="1" transform="translate(808.6419753086419,0)"><line stroke="#000" y2="6"/><text fill="#000" y="9" dy="-0.5em" style="text-anchor: end;" dx="-.8em" transform="rotate(-90)">Ponce (n=3)</text></g><g class="tick" opacity="1" transform="translate(932.0987654320987,0)"><line stroke="#000" y2="6"/><text fill="#000" y="9" dy="-0.5em" style="text-anchor: end;" dx="-.8em" transform="rotate(-90)">Rincon (n=10)</text></g></g><g class="y axis" fill="none" font-size="10" font-family="sans-serif" text-anchor="end"><path class="domain" stroke="#000" d="M-6,400.5H0.5V0.5H-6"/><g class="tick" opacity="1" transform="translate(0,400.5)"><line stroke="#000" x2="-6"/><text fill="#000" x="-9" dy="0.32em">1.0</text></g><g class="tick" opacity="1" transform="translate(0,343.3571428571429)"><line stroke="#000" x2="-6"/><text fill="#000" x="-9" dy="0.32em">1.5</text></g><g class="tick" opacity="1" transform="translate(0,286.2142857142857)"><line stroke="#000" x2="-6"/><text fill="#000" x="-9" dy="0.32em">2.0</text></g><g class="tick" opacity="1" transform="translate(0,229.07142857142858)"><line stroke="#000" x2="-6"/><text fill="#000" x="-9" dy="0.32em">2.5</text></g><g class="tick" opacity="1" transform="translate(0,171.92857142857144)"><line stroke="#000" x2="-6"/><text fill="#000" x="-9" dy="0.32em">3.0</text></g><g class="tick" opacity="1" transform="translate(0,114.78571428571428)"><line stroke="#000" x2="-6"/><text fill="#000" x="-9" dy="0.32em">3.5</text></g><g class="tick" opacity="1" transform="translate(0,57.64285714285717)"><line stroke="#000" x2="-6"/><text fill="#000" x="-9" dy="0.32em">4.0</text></g><g class="tick" opacity="1" transform="translate(0,0.5)"><line stroke="#000" x2="-6"/><text fill="#000" x="-9" dy="0.32em">4.5</text></g></g><text class="x label" text-anchor="middle" style="font: 12px sans-serif;" transform="translate(500,520.1999969482422)">Location</text><text class="y label" text-anchor="middle" style="font: 12px sans-serif;" transform="translate(-50,200)rotate(-90)">faith_pd</text><g class="outlier" transform="translate(67.90123456790117,0)"/><line class="center" x1="67.90123456790117" y1="280.3739157828571" x2="67.90123456790117" y2="119.66002689142857" stroke-dasharray="2,2" stroke-width="1" stroke="black"/><line class="center" x1="191.35802469135797" y1="288.3727818514286" x2="191.35802469135797" y2="170.46371874285714" stroke-dasharray="2,2" stroke-width="1" stroke="black"/><line class="center" x1="808.6419753086419" y1="241.75479922285714" x2="808.6419753086419" y2="194.11048630857147" stroke-dasharray="2,2" stroke-width="1" stroke="black"/><line class="center" x1="932.0987654320987" y1="306.19868857142853" x2="932.0987654320987" y2="47.169686365714256" stroke-dasharray="2,2" stroke-width="1" stroke="black"/><line class="center" x1="685.1851851851851" y1="221.50087370285715" x2="685.1851851851851" y2="46.42290405714289" stroke-dasharray="2,2" stroke-width="1" stroke="black"/><line class="center" x1="314.8148148148148" y1="242.66557202285713" x2="314.8148148148148" y2="207.35988976000002" stroke-dasharray="2,2" stroke-width="1" stroke="black"/><line class="center" x1="438.27160493827154" y1="237.97427206857142" x2="438.27160493827154" y2="147.65101797714286" stroke-dasharray="2,2" stroke-width="1" stroke="black"/><line class="center" x1="561.7283950617284" y1="297.40043918857145" x2="561.7283950617284" y2="149.08622383999997" stroke-dasharray="2,2" stroke-width="1" stroke="black"/><g class="outlier" transform="translate(191.35802469135797,0)"><circle r="4" stroke-width="1" stroke="black" stroke-opacity="0.3" fill="black" fill-opacity="0.33" cx="0" cy="382.77710181714286"/></g><rect class="box" x="12.345679012345613" y="171.04509528" width="111.11111111111111" height="65.19489835428573" fill="white" stroke-width="1" stroke="black"/><rect class="box" x="135.80246913580243" y="233.51637432285713" width="111.11111111111111" height="53.75313506857145" fill="white" stroke-width="1" stroke="black"/><rect class="box" x="753.0864197530864" y="212.78717998285717" width="111.11111111111111" height="23.822156457142825" fill="white" stroke-width="1" stroke="black"/><rect class="box" x="876.5432098765432" y="122.3107143457143" width="111.11111111111111" height="141.20711807714287" fill="white" stroke-width="1" stroke="black"/><rect class="box" x="259.25925925925924" y="218.55544939428572" width="111.11111111111111" height="17.652841131428545" fill="white" stroke-width="1" stroke="black"/><rect class="box" x="382.716049382716" y="170.23183150000003" width="111.11111111111111" height="45.161627045714226" fill="white" stroke-width="1" stroke="black"/><rect class="box" x="506.1728395061728" y="182.01656731428574" width="111.11111111111111" height="78.77081697142859" fill="white" stroke-width="1" stroke="black"/><rect class="box" x="629.6296296296296" y="128.68141381714287" width="111.11111111111111" height="68.57140226285713" fill="white" stroke-width="1" stroke="black"/><line class="median" x1="12.345679012345613" y1="200.86371810285715" x2="123.45679012345673" y2="200.86371810285715" stroke-width="1" stroke="black"/><line class="median" x1="135.80246913580243" y1="278.5631772342857" x2="246.91358024691354" y2="278.5631772342857" stroke-width="1" stroke="black"/><line class="median" x1="753.0864197530864" y1="231.46387365714287" x2="864.1975308641975" y2="231.46387365714287" stroke-width="1" stroke="black"/><line class="median" x1="876.5432098765432" y1="200.49407227428568" x2="987.6543209876543" y2="200.49407227428568" stroke-width="1" stroke="black"/><line class="median" x1="259.25925925925924" y1="229.75100902857142" x2="370.3703703703703" y2="229.75100902857142" stroke-width="1" stroke="black"/><line class="median" x1="382.716049382716" y1="192.81264502285717" x2="493.82716049382714" y2="192.81264502285717" stroke-width="1" stroke="black"/><line class="median" x1="506.1728395061728" y1="211.57471454857142" x2="617.283950617284" y2="211.57471454857142" stroke-width="1" stroke="black"/><line class="median" x1="629.6296296296296" y1="148.6002874857143" x2="740.7407407407406" y2="148.6002874857143" stroke-width="1" stroke="black"/><g class="whisker" transform="translate(40.12345679012339,0)"><line class="median" x1="0" y1="280.3739157828571" x2="55.55555555555556" y2="280.3739157828571" stroke-width="1" stroke="black"/><line class="median" x1="0" y1="119.66002689142857" x2="55.55555555555556" y2="119.66002689142857" stroke-width="1" stroke="black"/></g><g class="whisker" transform="translate(163.5802469135802,0)"><line class="median" x1="0" y1="288.3727818514286" x2="55.55555555555556" y2="288.3727818514286" stroke-width="1" stroke="black"/><line class="median" x1="0" y1="170.46371874285714" x2="55.55555555555556" y2="170.46371874285714" stroke-width="1" stroke="black"/></g><g class="whisker" transform="translate(780.8641975308642,0)"><line class="median" x1="0" y1="241.75479922285714" x2="55.55555555555556" y2="241.75479922285714" stroke-width="1" stroke="black"/><line class="median" x1="0" y1="194.11048630857147" x2="55.55555555555556" y2="194.11048630857147" stroke-width="1" stroke="black"/></g><g class="whisker" transform="translate(904.320987654321,0)"><line class="median" x1="0" y1="306.19868857142853" x2="55.55555555555556" y2="306.19868857142853" stroke-width="1" stroke="black"/><line class="median" x1="0" y1="47.169686365714256" x2="55.55555555555556" y2="47.169686365714256" stroke-width="1" stroke="black"/></g><g class="whisker" transform="translate(657.4074074074074,0)"><line class="median" x1="0" y1="221.50087370285715" x2="55.55555555555556" y2="221.50087370285715" stroke-width="1" stroke="black"/><line class="median" x1="0" y1="46.42290405714289" x2="55.55555555555556" y2="46.42290405714289" stroke-width="1" stroke="black"/></g><g class="whisker" transform="translate(287.037037037037,0)"><line class="median" x1="0" y1="242.66557202285713" x2="55.55555555555556" y2="242.66557202285713" stroke-width="1" stroke="black"/><line class="median" x1="0" y1="207.35988976000002" x2="55.55555555555556" y2="207.35988976000002" stroke-width="1" stroke="black"/></g><g class="whisker" transform="translate(410.49382716049377,0)"><line class="median" x1="0" y1="237.97427206857142" x2="55.55555555555556" y2="237.97427206857142" stroke-width="1" stroke="black"/><line class="median" x1="0" y1="147.65101797714286" x2="55.55555555555556" y2="147.65101797714286" stroke-width="1" stroke="black"/></g><g class="whisker" transform="translate(533.9506172839506,0)"><line class="median" x1="0" y1="297.40043918857145" x2="55.55555555555556" y2="297.40043918857145" stroke-width="1" stroke="black"/><line class="median" x1="0" y1="149.08622383999997" x2="55.55555555555556" y2="149.08622383999997" stroke-width="1" stroke="black"/></g><g class="outlier" transform="translate(314.8148148148148,0)"/><g class="outlier" transform="translate(438.27160493827154,0)"/><g class="outlier" transform="translate(561.7283950617284,0)"/><g class="outlier" transform="translate(685.1851851851851,0)"/><g class="outlier" transform="translate(808.6419753086419,0)"/><g class="outlier" transform="translate(932.0987654320987,0)"/></g></svg>