<?xml version="1.0" standalone="no"?>
<svg xmlns="http://www.w3.org/2000/svg" width="1120" height="600.8166656494141"><g transform="translate(70,20)"><g class="x axis" transform="translate(0,400)" fill="none" font-size="10" font-family="sans-serif" text-anchor="middle"><path class="domain" stroke="#000" d="M0.5,6V0.5H1000.5V6"/><g class="tick" opacity="1" transform="translate(90.16393442622952,0)"><line stroke="#000" y2="6"/><text fill="#000" y="9" dy="-0.5em" style="text-anchor: end;" dx="-.8em" transform="rotate(-90)">Patch Reef (n=7)</text></g><g class="tick" opacity="1" transform="translate(254.09836065573768,0)"><line stroke="#000" y2="6"/><text fill="#000" y="9" dy="-0.5em" style="text-anchor: end;" dx="-.8em" transform="rotate(-90)">Reef Rubble (n=6)</text></g><g class="tick" opacity="1" transform="translate(418.03278688524586,0)"><line stroke="#000" y2="6"/><text fill="#000" y="9" dy="-0.5em" style="text-anchor: end;" dx="-.8em" transform="rotate(-90)">Rocks (n=8)</text></g><g class="tick" opacity="1" transform="translate(581.967213114754,0)"><line stroke="#000" y2="6"/><text fill="#000" y="9" dy="-0.5em" style="text-anchor: end;" dx="-.8em" transform="rotate(-90)">Rocky Reef (n=10)</text></g><g class="tick" opacity="1" transform="translate(745.9016393442622,0)"><line stroke="#000" y2="6"/><text fill="#000" y="9" dy="-0.5em" style="text-anchor: end;" dx="-.8em" transform="rotate(-90)">Seagrass (n=5)</text></g><g class="tick" opacity="1" transform="translate(909.8360655737704,0)"><line stroke="#000" y2="6"/><text fill="#000" y="9" dy="-0.5em" style="text-anchor: end;" dx="-.8em" transform="rotate(-90)">Spur &amp; Groove Reef (n=7)</text></g></g><g class="y axis" fill="none" font-size="10" font-family="sans-serif" text-anchor="end"><path class="domain" stroke="#000" d="M-6,400.5H0.5V0.5H-6"/><g class="tick" opacity="1" transform="translate(0,400.5)"><line stroke="#000" x2="-6"/><text fill="#000" x="-9" dy="0.32em">0.66</text></g><g class="tick" opacity="1" transform="translate(0,356.0555555555555)"><line stroke="#000" x2="-6"/><text fill="#000" x="-9" dy="0.32em">0.68</text></g><g class="tick" opacity="1" transform="translate(0,311.61111111111126)"><line stroke="#000" x2="-6"/><text fill="#000" x="-9" dy="0.32em">0.70</text></g><g class="tick" opacity="1" transform="translate(0,267.16666666666674)"><line stroke="#000" x2="-6"/><text fill="#000" x="-9" dy="0.32em">0.72</text></g><g class="tick" opacity="1" transform="translate(0,222.72222222222226)"><line stroke="#000" x2="-6"/><text fill="#000" x="-9" dy="0.32em">0.74</text></g><g class="tick" opacity="1" transform="translate(0,178.27777777777777)"><line stroke="#000" x2="-6"/><text fill="#000" x="-9" dy="0.32em">0.76</text></g><g class="tick" opacity="1" transform="translate(0,133.83333333333326)"><line stroke="#000" x2="-6"/><text fill="#000" x="-9" dy="0.32em">0.78</text></g><g class="tick" opacity="1" transform="translate(0,89.38888888888874)"><line stroke="#000" x2="-6"/><text fill="#000" x="-9" dy="0.32em">0.80</text></g><g class="tick" opacity="1" transform="translate(0,44.944444444444514)"><line stroke="#000" x2="-6"/><text fill="#000" x="-9" dy="0.32em">0.82</text></g><g class="tick" opacity="1" transform="translate(0,0.5)"><line stroke="#000" x2="-6"/><text fill="#000" x="-9" dy="0.32em">0.84</text></g></g><text class="x label" text-anchor="middle" style="font: 12px sans-serif;" transform="translate(500,570.8166656494141)">Reef_Habitat</text><text class="y label" text-anchor="middle" style="font: 12px sans-serif;" transform="translate(-50,200)rotate(-90)">pielou_evenness</text><g class="outlier" transform="translate(90.16393442622952,0)"><circle r="4" stroke-width="1" stroke="black" stroke-opacity="0.3" fill="black" fill-opacity="0.33" cx="0" cy="386.26074711111113"/></g><g class="outlier" transform="translate(254.09836065573768,0)"/><line class="center" x1="90.16393442622952" y1="221.03715444444444" x2="90.16393442622952" y2="141.82297488888878" stroke-dasharray="2,2" stroke-width="1" stroke="black"/><line class="center" x1="254.09836065573768" y1="284.4600144444445" x2="254.09836065573768" y2="133.6461399999999" stroke-dasharray="2,2" stroke-width="1" stroke="black"/><line class="center" x1="418.03278688524586" y1="356.5616800000001" x2="418.03278688524586" y2="23.943870888888796" stroke-dasharray="2,2" stroke-width="1" stroke="black"/><line class="center" x1="581.967213114754" y1="275.8067957777778" x2="581.967213114754" y2="17.506752000000006" stroke-dasharray="2,2" stroke-width="1" stroke="black"/><line class="center" x1="745.9016393442622" y1="316.50018266666666" x2="745.9016393442622" y2="152.0341984444445" stroke-dasharray="2,2" stroke-width="1" stroke="black"/><line class="center" x1="909.8360655737704" y1="244.7162951111111" x2="909.8360655737704" y2="60.919678666666584" stroke-dasharray="2,2" stroke-width="1" stroke="black"/><g class="outlier" transform="translate(418.03278688524586,0)"/><g class="outlier" transform="translate(581.967213114754,0)"/><g class="outlier" transform="translate(745.9016393442622,0)"/><g class="outlier" transform="translate(909.8360655737704,0)"/><rect class="box" x="16.39344262295083" y="153.82322244444424" width="147.54098360655738" height="56.8699973333336" fill="white" stroke-width="1" stroke="black"/><rect class="box" x="180.327868852459" y="155.08439249999986" width="147.54098360655738" height="99.65612527777787" fill="white" stroke-width="1" stroke="black"/><rect class="box" x="344.2622950819672" y="56.62511888888889" width="147.54098360655738" height="155.36848994444452" fill="white" stroke-width="1" stroke="black"/><rect class="box" x="508.19672131147536" y="85.78582944444446" width="147.54098360655738" height="131.82313533333328" fill="white" stroke-width="1" stroke="black"/><rect class="box" x="672.1311475409835" y="189.9690711111111" width="147.54098360655738" height="78.76304711111109" fill="white" stroke-width="1" stroke="black"/><rect class="box" x="836.0655737704917" y="107.21328688888883" width="147.54098360655738" height="107.16933088888894" fill="white" stroke-width="1" stroke="black"/><line class="median" x1="16.39344262295083" y1="177.1268786666667" x2="163.9344262295082" y2="177.1268786666667" stroke-width="1" stroke="black"/><line class="median" x1="180.327868852459" y1="173.00381755555537" x2="327.86885245901635" y2="173.00381755555537" stroke-width="1" stroke="black"/><line class="median" x1="344.2622950819672" y1="178.44757566666658" x2="491.80327868852453" y2="178.44757566666658" stroke-width="1" stroke="black"/><line class="median" x1="508.19672131147536" y1="167.58082088888878" x2="655.7377049180327" y2="167.58082088888878" stroke-width="1" stroke="black"/><line class="median" x1="672.1311475409835" y1="241.05246533333332" x2="819.6721311475409" y2="241.05246533333332" stroke-width="1" stroke="black"/><line class="median" x1="836.0655737704917" y1="177.1931675555556" x2="983.6065573770491" y2="177.1931675555556" stroke-width="1" stroke="black"/><g class="whisker" transform="translate(53.27868852459017,0)"><line class="median" x1="0" y1="221.03715444444444" x2="73.77049180327869" y2="221.03715444444444" stroke-width="1" stroke="black"/><line class="median" x1="0" y1="141.82297488888878" x2="73.77049180327869" y2="141.82297488888878" stroke-width="1" stroke="black"/></g><g class="whisker" transform="translate(217.21311475409834,0)"><line class="median" x1="0" y1="284.4600144444445" x2="73.77049180327869" y2="284.4600144444445" stroke-width="1" stroke="black"/><line class="median" x1="0" y1="133.6461399999999" x2="73.77049180327869" y2="133.6461399999999" stroke-width="1" stroke="black"/></g><g class="whisker" transform="translate(381.1475409836065,0)"><line class="median" x1="0" y1="356.5616800000001" x2="73.77049180327869" y2="356.5616800000001" stroke-width="1" stroke="black"/><line class="median" x1="0" y1="23.943870888888796" x2="73.77049180327869" y2="23.943870888888796" stroke-width="1" stroke="black"/></g><g class="whisker" transform="translate(545.0819672131147,0)"><line class="median" x1="0" y1="275.8067957777778" x2="73.77049180327869" y2="275.8067957777778" stroke-width="1" stroke="black"/><line class="median" x1="0" y1="17.506752000000006" x2="73.77049180327869" y2="17.506752000000006" stroke-width="1" stroke="black"/></g><g class="whisker" transform="translate(709.0163934426229,0)"><line class="median" x1="0" y1="316.50018266666666" x2="73.77049180327869" y2="316.50018266666666" stroke-width="1" stroke="black"/><line class="median" x1="0" y1="152.0341984444445" x2="73.77049180327869" y2="152.0341984444445" stroke-width="1" stroke="black"/></g><g class="whisker" transform="translate(872.950819672131,0)"><line class="median" x1="0" y1="244.7162951111111" x2="73.77049180327869" y2="244.7162951111111" stroke-width="1" stroke="black"/><line class="median" x1="0" y1="60.919678666666584" x2="73.77049180327869" y2="60.919678666666584" stroke-width="1" stroke="black"/></g></g></svg>