<?xml version="1.0" standalone="no"?>
<svg xmlns="http://www.w3.org/2000/svg" width="1120" height="633.0166625976562"><g transform="translate(70,20)"><g class="x axis" transform="translate(0,400)" fill="none" font-size="10" font-family="sans-serif" text-anchor="middle"><path class="domain" stroke="#000" d="M0.5,6V0.5H1000.5V6"/><g class="tick" opacity="1" transform="translate(60.439560439560374,0)"><line stroke="#000" y2="6"/><text fill="#000" y="9" dy="-0.5em" style="text-anchor: end;" dx="-.8em" transform="rotate(-90)">17.929801, -66.158912 (n=2)</text></g><g class="tick" opacity="1" transform="translate(170.32967032967028,0)"><line stroke="#000" y2="6"/><text fill="#000" y="9" dy="-0.5em" style="text-anchor: end;" dx="-.8em" transform="rotate(-90)">17.934784, -66.957102 (n=3)</text></g><g class="tick" opacity="1" transform="translate(280.21978021978015,0)"><line stroke="#000" y2="6"/><text fill="#000" y="9" dy="-0.5em" style="text-anchor: end;" dx="-.8em" transform="rotate(-90)">17.964016, -66.609962 (n=2)</text></g><g class="tick" opacity="1" transform="translate(390.10989010989005,0)"><line stroke="#000" y2="6"/><text fill="#000" y="9" dy="-0.5em" style="text-anchor: end;" dx="-.8em" transform="rotate(-90)">17.9724027, -66.6179076 (n=1)</text></g><g class="tick" opacity="1" transform="translate(499.99999999999994,0)"><line stroke="#000" y2="6"/><text fill="#000" y="9" dy="-0.5em" style="text-anchor: end;" dx="-.8em" transform="rotate(-90)">18.218831, -65.604282 (n=9)</text></g><g class="tick" opacity="1" transform="translate(609.8901098901099,0)"><line stroke="#000" y2="6"/><text fill="#000" y="9" dy="-0.5em" style="text-anchor: end;" dx="-.8em" transform="rotate(-90)">18.302451, -65.309386 (n=6)</text></g><g class="tick" opacity="1" transform="translate(719.7802197802198,0)"><line stroke="#000" y2="6"/><text fill="#000" y="9" dy="-0.5em" style="text-anchor: end;" dx="-.8em" transform="rotate(-90)">18.343114, -67.260138 (n=10)</text></g><g class="tick" opacity="1" transform="translate(829.6703296703297,0)"><line stroke="#000" y2="6"/><text fill="#000" y="9" dy="-0.5em" style="text-anchor: end;" dx="-.8em" transform="rotate(-90)">18.387573, -65.719616 (n=5)</text></g><g class="tick" opacity="1" transform="translate(939.5604395604396,0)"><line stroke="#000" y2="6"/><text fill="#000" y="9" dy="-0.5em" style="text-anchor: end;" dx="-.8em" transform="rotate(-90)">18.515768, -67.100173 (n=5)</text></g></g><g class="y axis" fill="none" font-size="10" font-family="sans-serif" text-anchor="end"><path class="domain" stroke="#000" d="M-6,400.5H0.5V0.5H-6"/><g class="tick" opacity="1" transform="translate(0,400.5)"><line stroke="#000" x2="-6"/><text fill="#000" x="-9" dy="0.32em">0.66</text></g><g class="tick" opacity="1" transform="translate(0,356.0555555555555)"><line stroke="#000" x2="-6"/><text fill="#000" x="-9" dy="0.32em">0.68</text></g><g class="tick" opacity="1" transform="translate(0,311.61111111111126)"><line stroke="#000" x2="-6"/><text fill="#000" x="-9" dy="0.32em">0.70</text></g><g class="tick" opacity="1" transform="translate(0,267.16666666666674)"><line stroke="#000" x2="-6"/><text fill="#000" x="-9" dy="0.32em">0.72</text></g><g class="tick" opacity="1" transform="translate(0,222.72222222222226)"><line stroke="#000" x2="-6"/><text fill="#000" x="-9" dy="0.32em">0.74</text></g><g class="tick" opacity="1" transform="translate(0,178.27777777777777)"><line stroke="#000" x2="-6"/><text fill="#000" x="-9" dy="0.32em">0.76</text></g><g class="tick" opacity="1" transform="translate(0,133.83333333333326)"><line stroke="#000" x2="-6"/><text fill="#000" x="-9" dy="0.32em">0.78</text></g><g class="tick" opacity="1" transform="translate(0,89.38888888888874)"><line stroke="#000" x2="-6"/><text fill="#000" x="-9" dy="0.32em">0.80</text></g><g class="tick" opacity="1" transform="translate(0,44.944444444444514)"><line stroke="#000" x2="-6"/><text fill="#000" x="-9" dy="0.32em">0.82</text></g><g class="tick" opacity="1" transform="translate(0,0.5)"><line stroke="#000" x2="-6"/><text fill="#000" x="-9" dy="0.32em">0.84</text></g></g><text class="x label" text-anchor="middle" style="font: 12px sans-serif;" transform="translate(500,603.0166625976562)">Latitude_Longitude</text><text class="y label" text-anchor="middle" style="font: 12px sans-serif;" transform="translate(-50,200)rotate(-90)">pielou_evenness</text><g class="outlier" transform="translate(170.32967032967028,0)"/><g class="outlier" transform="translate(280.21978021978015,0)"/><g class="outlier" transform="translate(390.10989010989005,0)"/><g class="outlier" transform="translate(499.99999999999994,0)"><circle r="4" stroke-width="1" stroke="black" stroke-opacity="0.3" fill="black" fill-opacity="0.33" cx="0" cy="386.26074711111113"/></g><g class="outlier" transform="translate(60.439560439560374,0)"/><line class="center" x1="280.21978021978015" y1="268.1859373333333" x2="280.21978021978015" y2="186.58047644444434" stroke-dasharray="2,2" stroke-width="1" stroke="black"/><line class="center" x1="390.10989010989005" y1="58.20226555555564" x2="390.10989010989005" y2="58.20226555555564" stroke-dasharray="2,2" stroke-width="1" stroke="black"/><line class="center" x1="499.99999999999994" y1="244.7162951111111" x2="499.99999999999994" y2="60.919678666666584" stroke-dasharray="2,2" stroke-width="1" stroke="black"/><line class="center" x1="609.8901098901099" y1="284.4600144444445" x2="609.8901098901099" y2="133.6461399999999" stroke-dasharray="2,2" stroke-width="1" stroke="black"/><line class="center" x1="170.32967032967028" y1="356.5616800000001" x2="170.32967032967028" y2="51.8936788888887" stroke-dasharray="2,2" stroke-width="1" stroke="black"/><line class="center" x1="60.439560439560374" y1="193.26283266666678" x2="60.439560439560374" y2="23.943870888888796" stroke-dasharray="2,2" stroke-width="1" stroke="black"/><line class="center" x1="939.5604395604396" y1="233.33156755555555" x2="939.5604395604396" y2="79.9445659999999" stroke-dasharray="2,2" stroke-width="1" stroke="black"/><line class="center" x1="829.6703296703297" y1="316.50018266666666" x2="829.6703296703297" y2="152.0341984444445" stroke-dasharray="2,2" stroke-width="1" stroke="black"/><line class="center" x1="719.7802197802198" y1="275.8067957777778" x2="719.7802197802198" y2="17.506752000000006" stroke-dasharray="2,2" stroke-width="1" stroke="black"/><rect class="box" x="230.76923076923072" y="206.9818416666667" width="98.9010989010989" height="40.80273044444425" fill="white" stroke-width="1" stroke="black"/><rect class="box" x="340.6593406593406" y="58.20226555555564" width="98.9010989010989" height="0" fill="white" stroke-width="1" stroke="black"/><rect class="box" x="450.5494505494505" y="147.9153244444444" width="98.9010989010989" height="73.12183000000005" fill="white" stroke-width="1" stroke="black"/><rect class="box" x="560.4395604395604" y="155.08439249999986" width="98.9010989010989" height="99.65612527777787" fill="white" stroke-width="1" stroke="black"/><rect class="box" x="120.87912087912082" y="111.1041768888889" width="98.9010989010989" height="152.33400055555558" fill="white" stroke-width="1" stroke="black"/><rect class="box" x="10.989010989010922" y="66.27361133333329" width="98.9010989010989" height="84.659480888889" fill="white" stroke-width="1" stroke="black"/><rect class="box" x="890.1098901098901" y="134.4820077777777" width="98.9010989010989" height="60.95166022222227" fill="white" stroke-width="1" stroke="black"/><rect class="box" x="780.2197802197802" y="189.9690711111111" width="98.9010989010989" height="78.76304711111109" fill="white" stroke-width="1" stroke="black"/><rect class="box" x="670.3296703296703" y="85.78582944444446" width="98.9010989010989" height="131.82313533333328" fill="white" stroke-width="1" stroke="black"/><line class="median" x1="230.76923076923072" y1="227.38320688888882" x2="329.67032967032964" y2="227.38320688888882" stroke-width="1" stroke="black"/><line class="median" x1="340.6593406593406" y1="58.20226555555564" x2="439.56043956043953" y2="58.20226555555564" stroke-width="1" stroke="black"/><line class="median" x1="450.5494505494505" y1="177.1268786666667" x2="549.4505494505494" y2="177.1268786666667" stroke-width="1" stroke="black"/><line class="median" x1="560.4395604395604" y1="173.00381755555537" x2="659.3406593406593" y2="173.00381755555537" stroke-width="1" stroke="black"/><line class="median" x1="120.87912087912082" y1="170.31467488888885" x2="219.78021978021974" y2="170.31467488888885" stroke-width="1" stroke="black"/><line class="median" x1="10.989010989010922" y1="108.60335177777773" x2="109.89010989010983" y2="108.60335177777773" stroke-width="1" stroke="black"/><line class="median" x1="890.1098901098901" y1="177.1931675555556" x2="989.010989010989" y2="177.1931675555556" stroke-width="1" stroke="black"/><line class="median" x1="780.2197802197802" y1="241.05246533333332" x2="879.1208791208791" y2="241.05246533333332" stroke-width="1" stroke="black"/><line class="median" x1="670.3296703296703" y1="167.58082088888878" x2="769.2307692307692" y2="167.58082088888878" stroke-width="1" stroke="black"/><g class="whisker" transform="translate(255.49450549450543,0)"><line class="median" x1="0" y1="268.1859373333333" x2="49.45054945054945" y2="268.1859373333333" stroke-width="1" stroke="black"/><line class="median" x1="0" y1="186.58047644444434" x2="49.45054945054945" y2="186.58047644444434" stroke-width="1" stroke="black"/></g><g class="whisker" transform="translate(365.38461538461536,0)"><line class="median" x1="0" y1="58.20226555555564" x2="49.45054945054945" y2="58.20226555555564" stroke-width="1" stroke="black"/><line class="median" x1="0" y1="58.20226555555564" x2="49.45054945054945" y2="58.20226555555564" stroke-width="1" stroke="black"/></g><g class="whisker" transform="translate(475.27472527472526,0)"><line class="median" x1="0" y1="244.7162951111111" x2="49.45054945054945" y2="244.7162951111111" stroke-width="1" stroke="black"/><line class="median" x1="0" y1="60.919678666666584" x2="49.45054945054945" y2="60.919678666666584" stroke-width="1" stroke="black"/></g><g class="whisker" transform="translate(585.1648351648352,0)"><line class="median" x1="0" y1="284.4600144444445" x2="49.45054945054945" y2="284.4600144444445" stroke-width="1" stroke="black"/><line class="median" x1="0" y1="133.6461399999999" x2="49.45054945054945" y2="133.6461399999999" stroke-width="1" stroke="black"/></g><g class="whisker" transform="translate(145.60439560439553,0)"><line class="median" x1="0" y1="356.5616800000001" x2="49.45054945054945" y2="356.5616800000001" stroke-width="1" stroke="black"/><line class="median" x1="0" y1="51.8936788888887" x2="49.45054945054945" y2="51.8936788888887" stroke-width="1" stroke="black"/></g><g class="whisker" transform="translate(35.71428571428565,0)"><line class="median" x1="0" y1="193.26283266666678" x2="49.45054945054945" y2="193.26283266666678" stroke-width="1" stroke="black"/><line class="median" x1="0" y1="23.943870888888796" x2="49.45054945054945" y2="23.943870888888796" stroke-width="1" stroke="black"/></g><g class="whisker" transform="translate(914.8351648351648,0)"><line class="median" x1="0" y1="233.33156755555555" x2="49.45054945054945" y2="233.33156755555555" stroke-width="1" stroke="black"/><line class="median" x1="0" y1="79.9445659999999" x2="49.45054945054945" y2="79.9445659999999" stroke-width="1" stroke="black"/></g><g class="whisker" transform="translate(804.945054945055,0)"><line class="median" x1="0" y1="316.50018266666666" x2="49.45054945054945" y2="316.50018266666666" stroke-width="1" stroke="black"/><line class="median" x1="0" y1="152.0341984444445" x2="49.45054945054945" y2="152.0341984444445" stroke-width="1" stroke="black"/></g><g class="whisker" transform="translate(695.054945054945,0)"><line class="median" x1="0" y1="275.8067957777778" x2="49.45054945054945" y2="275.8067957777778" stroke-width="1" stroke="black"/><line class="median" x1="0" y1="17.506752000000006" x2="49.45054945054945" y2="17.506752000000006" stroke-width="1" stroke="black"/></g><g class="outlier" transform="translate(609.8901098901099,0)"/><g class="outlier" transform="translate(719.7802197802198,0)"/><g class="outlier" transform="translate(829.6703296703297,0)"/><g class="outlier" transform="translate(939.5604395604396,0)"/></g></svg>