<?xml version="1.0" standalone="no"?>
<svg xmlns="http://www.w3.org/2000/svg" width="1120" height="550.1999969482422"><g transform="translate(70,20)"><g class="x axis" transform="translate(0,400)" fill="none" font-size="10" font-family="sans-serif" text-anchor="middle"><path class="domain" stroke="#000" d="M0.5,6V0.5H1000.5V6"/><g class="tick" opacity="1" transform="translate(67.90123456790117,0)"><line stroke="#000" y2="6"/><text fill="#000" y="9" dy="-0.5em" style="text-anchor: end;" dx="-.8em" transform="rotate(-90)">Ceiba (n=9)</text></g><g class="tick" opacity="1" transform="translate(191.35802469135797,0)"><line stroke="#000" y2="6"/><text fill="#000" y="9" dy="-0.5em" style="text-anchor: end;" dx="-.8em" transform="rotate(-90)">Culebra (n=6)</text></g><g class="tick" opacity="1" transform="translate(314.8148148148148,0)"><line stroke="#000" y2="6"/><text fill="#000" y="9" dy="-0.5em" style="text-anchor: end;" dx="-.8em" transform="rotate(-90)">Guanica (n=3)</text></g><g class="tick" opacity="1" transform="translate(438.27160493827154,0)"><line stroke="#000" y2="6"/><text fill="#000" y="9" dy="-0.5em" style="text-anchor: end;" dx="-.8em" transform="rotate(-90)">Guayama (n=2)</text></g><g class="tick" opacity="1" transform="translate(561.7283950617284,0)"><line stroke="#000" y2="6"/><text fill="#000" y="9" dy="-0.5em" style="text-anchor: end;" dx="-.8em" transform="rotate(-90)">Isabella (n=5)</text></g><g class="tick" opacity="1" transform="translate(685.1851851851851,0)"><line stroke="#000" y2="6"/><text fill="#000" y="9" dy="-0.5em" style="text-anchor: end;" dx="-.8em" transform="rotate(-90)">Luquillo (n=5)</text></g><g class="tick" opacity="1" transform="translate(808.6419753086419,0)"><line stroke="#000" y2="6"/><text fill="#000" y="9" dy="-0.5em" style="text-anchor: end;" dx="-.8em" transform="rotate(-90)">Ponce (n=3)</text></g><g class="tick" opacity="1" transform="translate(932.0987654320987,0)"><line stroke="#000" y2="6"/><text fill="#000" y="9" dy="-0.5em" style="text-anchor: end;" dx="-.8em" transform="rotate(-90)">Rincon (n=10)</text></g></g><g class="y axis" fill="none" font-size="10" font-family="sans-serif" text-anchor="end"><path class="domain" stroke="#000" d="M-6,400.5H0.5V0.5H-6"/><g class="tick" opacity="1" transform="translate(0,400.5)"><line stroke="#000" x2="-6"/><text fill="#000" x="-9" dy="0.32em">0.66</text></g><g class="tick" opacity="1" transform="translate(0,356.0555555555555)"><line stroke="#000" x2="-6"/><text fill="#000" x="-9" dy="0.32em">0.68</text></g><g class="tick" opacity="1" transform="translate(0,311.61111111111126)"><line stroke="#000" x2="-6"/><text fill="#000" x="-9" dy="0.32em">0.70</text></g><g class="tick" opacity="1" transform="translate(0,267.16666666666674)"><line stroke="#000" x2="-6"/><text fill="#000" x="-9" dy="0.32em">0.72</text></g><g class="tick" opacity="1" transform="translate(0,222.72222222222226)"><line stroke="#000" x2="-6"/><text fill="#000" x="-9" dy="0.32em">0.74</text></g><g class="tick" opacity="1" transform="translate(0,178.27777777777777)"><line stroke="#000" x2="-6"/><text fill="#000" x="-9" dy="0.32em">0.76</text></g><g class="tick" opacity="1" transform="translate(0,133.83333333333326)"><line stroke="#000" x2="-6"/><text fill="#000" x="-9" dy="0.32em">0.78</text></g><g class="tick" opacity="1" transform="translate(0,89.38888888888874)"><line stroke="#000" x2="-6"/><text fill="#000" x="-9" dy="0.32em">0.80</text></g><g class="tick" opacity="1" transform="translate(0,44.944444444444514)"><line stroke="#000" x2="-6"/><text fill="#000" x="-9" dy="0.32em">0.82</text></g><g class="tick" opacity="1" transform="translate(0,0.5)"><line stroke="#000" x2="-6"/><text fill="#000" x="-9" dy="0.32em">0.84</text></g></g><text class="x label" text-anchor="middle" style="font: 12px sans-serif;" transform="translate(500,520.1999969482422)">Location</text><text class="y label" text-anchor="middle" style="font: 12px sans-serif;" transform="translate(-50,200)rotate(-90)">pielou_evenness</text><g class="outlier" transform="translate(67.90123456790117,0)"><circle r="4" stroke-width="1" stroke="black" stroke-opacity="0.3" fill="black" fill-opacity="0.33" cx="0" cy="386.26074711111113"/></g><g class="outlier" transform="translate(191.35802469135797,0)"/><line class="center" x1="67.90123456790117" y1="244.7162951111111" x2="67.90123456790117" y2="60.919678666666584" stroke-dasharray="2,2" stroke-width="1" stroke="black"/><line class="center" x1="191.35802469135797" y1="284.4600144444445" x2="191.35802469135797" y2="133.6461399999999" stroke-dasharray="2,2" stroke-width="1" stroke="black"/><line class="center" x1="314.8148148148148" y1="356.5616800000001" x2="314.8148148148148" y2="51.8936788888887" stroke-dasharray="2,2" stroke-width="1" stroke="black"/><line class="center" x1="438.27160493827154" y1="193.26283266666678" x2="438.27160493827154" y2="23.943870888888796" stroke-dasharray="2,2" stroke-width="1" stroke="black"/><line class="center" x1="561.7283950617284" y1="233.33156755555555" x2="561.7283950617284" y2="79.9445659999999" stroke-dasharray="2,2" stroke-width="1" stroke="black"/><line class="center" x1="685.1851851851851" y1="316.50018266666666" x2="685.1851851851851" y2="152.0341984444445" stroke-dasharray="2,2" stroke-width="1" stroke="black"/><line class="center" x1="808.6419753086419" y1="268.1859373333333" x2="808.6419753086419" y2="58.20226555555564" stroke-dasharray="2,2" stroke-width="1" stroke="black"/><line class="center" x1="932.0987654320987" y1="275.8067957777778" x2="932.0987654320987" y2="17.506752000000006" stroke-dasharray="2,2" stroke-width="1" stroke="black"/><g class="outlier" transform="translate(314.8148148148148,0)"/><g class="outlier" transform="translate(438.27160493827154,0)"/><g class="outlier" transform="translate(561.7283950617284,0)"/><g class="outlier" transform="translate(685.1851851851851,0)"/><g class="outlier" transform="translate(808.6419753086419,0)"/><g class="outlier" transform="translate(932.0987654320987,0)"/><rect class="box" x="12.345679012345613" y="147.9153244444444" width="111.11111111111111" height="73.12183000000005" fill="white" stroke-width="1" stroke="black"/><rect class="box" x="135.80246913580243" y="155.08439249999986" width="111.11111111111111" height="99.65612527777787" fill="white" stroke-width="1" stroke="black"/><rect class="box" x="259.25925925925924" y="111.1041768888889" width="111.11111111111111" height="152.33400055555558" fill="white" stroke-width="1" stroke="black"/><rect class="box" x="382.716049382716" y="66.27361133333329" width="111.11111111111111" height="84.659480888889" fill="white" stroke-width="1" stroke="black"/><rect class="box" x="506.1728395061728" y="134.4820077777777" width="111.11111111111111" height="60.95166022222227" fill="white" stroke-width="1" stroke="black"/><rect class="box" x="629.6296296296296" y="189.9690711111111" width="111.11111111111111" height="78.76304711111109" fill="white" stroke-width="1" stroke="black"/><rect class="box" x="753.0864197530864" y="122.39137099999988" width="111.11111111111111" height="104.99183588888894" fill="white" stroke-width="1" stroke="black"/><rect class="box" x="876.5432098765432" y="85.78582944444446" width="111.11111111111111" height="131.82313533333328" fill="white" stroke-width="1" stroke="black"/><line class="median" x1="12.345679012345613" y1="177.1268786666667" x2="123.45679012345673" y2="177.1268786666667" stroke-width="1" stroke="black"/><line class="median" x1="135.80246913580243" y1="173.00381755555537" x2="246.91358024691354" y2="173.00381755555537" stroke-width="1" stroke="black"/><line class="median" x1="259.25925925925924" y1="170.31467488888885" x2="370.3703703703703" y2="170.31467488888885" stroke-width="1" stroke="black"/><line class="median" x1="382.716049382716" y1="108.60335177777773" x2="493.82716049382714" y2="108.60335177777773" stroke-width="1" stroke="black"/><line class="median" x1="506.1728395061728" y1="177.1931675555556" x2="617.283950617284" y2="177.1931675555556" stroke-width="1" stroke="black"/><line class="median" x1="629.6296296296296" y1="241.05246533333332" x2="740.7407407407406" y2="241.05246533333332" stroke-width="1" stroke="black"/><line class="median" x1="753.0864197530864" y1="186.58047644444434" x2="864.1975308641975" y2="186.58047644444434" stroke-width="1" stroke="black"/><line class="median" x1="876.5432098765432" y1="167.58082088888878" x2="987.6543209876543" y2="167.58082088888878" stroke-width="1" stroke="black"/><g class="whisker" transform="translate(40.12345679012339,0)"><line class="median" x1="0" y1="244.7162951111111" x2="55.55555555555556" y2="244.7162951111111" stroke-width="1" stroke="black"/><line class="median" x1="0" y1="60.919678666666584" x2="55.55555555555556" y2="60.919678666666584" stroke-width="1" stroke="black"/></g><g class="whisker" transform="translate(163.5802469135802,0)"><line class="median" x1="0" y1="284.4600144444445" x2="55.55555555555556" y2="284.4600144444445" stroke-width="1" stroke="black"/><line class="median" x1="0" y1="133.6461399999999" x2="55.55555555555556" y2="133.6461399999999" stroke-width="1" stroke="black"/></g><g class="whisker" transform="translate(287.037037037037,0)"><line class="median" x1="0" y1="356.5616800000001" x2="55.55555555555556" y2="356.5616800000001" stroke-width="1" stroke="black"/><line class="median" x1="0" y1="51.8936788888887" x2="55.55555555555556" y2="51.8936788888887" stroke-width="1" stroke="black"/></g><g class="whisker" transform="translate(410.49382716049377,0)"><line class="median" x1="0" y1="193.26283266666678" x2="55.55555555555556" y2="193.26283266666678" stroke-width="1" stroke="black"/><line class="median" x1="0" y1="23.943870888888796" x2="55.55555555555556" y2="23.943870888888796" stroke-width="1" stroke="black"/></g><g class="whisker" transform="translate(533.9506172839506,0)"><line class="median" x1="0" y1="233.33156755555555" x2="55.55555555555556" y2="233.33156755555555" stroke-width="1" stroke="black"/><line class="median" x1="0" y1="79.9445659999999" x2="55.55555555555556" y2="79.9445659999999" stroke-width="1" stroke="black"/></g><g class="whisker" transform="translate(657.4074074074074,0)"><line class="median" x1="0" y1="316.50018266666666" x2="55.55555555555556" y2="316.50018266666666" stroke-width="1" stroke="black"/><line class="median" x1="0" y1="152.0341984444445" x2="55.55555555555556" y2="152.0341984444445" stroke-width="1" stroke="black"/></g><g class="whisker" transform="translate(780.8641975308642,0)"><line class="median" x1="0" y1="268.1859373333333" x2="55.55555555555556" y2="268.1859373333333" stroke-width="1" stroke="black"/><line class="median" x1="0" y1="58.20226555555564" x2="55.55555555555556" y2="58.20226555555564" stroke-width="1" stroke="black"/></g><g class="whisker" transform="translate(904.320987654321,0)"><line class="median" x1="0" y1="275.8067957777778" x2="55.55555555555556" y2="275.8067957777778" stroke-width="1" stroke="black"/><line class="median" x1="0" y1="17.506752000000006" x2="55.55555555555556" y2="17.506752000000006" stroke-width="1" stroke="black"/></g></g></svg>