<?xml version="1.0" standalone="no"?>
<svg xmlns="http://www.w3.org/2000/svg" width="1120" height="575.3833312988281"><g transform="translate(70,20)"><g class="x axis" transform="translate(0,400)" fill="none" font-size="10" font-family="sans-serif" text-anchor="middle"><path class="domain" stroke="#000" d="M0.5,6V0.5H1000.5V6"/><g class="tick" opacity="1" transform="translate(90.16393442622952,0)"><line stroke="#000" y2="6"/><text fill="#000" y="9" dy="-0.5em" style="text-anchor: end;" dx="-.8em" transform="rotate(-90)">FourPointFive (n=1)</text></g><g class="tick" opacity="1" transform="translate(254.09836065573768,0)"><line stroke="#000" y2="6"/><text fill="#000" y="9" dy="-0.5em" style="text-anchor: end;" dx="-.8em" transform="rotate(-90)">OnePointFive (n=3)</text></g><g class="tick" opacity="1" transform="translate(418.03278688524586,0)"><line stroke="#000" y2="6"/><text fill="#000" y="9" dy="-0.5em" style="text-anchor: end;" dx="-.8em" transform="rotate(-90)">Three (n=16)</text></g><g class="tick" opacity="1" transform="translate(581.967213114754,0)"><line stroke="#000" y2="6"/><text fill="#000" y="9" dy="-0.5em" style="text-anchor: end;" dx="-.8em" transform="rotate(-90)">ThreePointFive (n=2)</text></g><g class="tick" opacity="1" transform="translate(745.9016393442622,0)"><line stroke="#000" y2="6"/><text fill="#000" y="9" dy="-0.5em" style="text-anchor: end;" dx="-.8em" transform="rotate(-90)">Two (n=6)</text></g><g class="tick" opacity="1" transform="translate(909.8360655737704,0)"><line stroke="#000" y2="6"/><text fill="#000" y="9" dy="-0.5em" style="text-anchor: end;" dx="-.8em" transform="rotate(-90)">TwoPointFive (n=15)</text></g></g><g class="y axis" fill="none" font-size="10" font-family="sans-serif" text-anchor="end"><path class="domain" stroke="#000" d="M-6,400.5H0.5V0.5H-6"/><g class="tick" opacity="1" transform="translate(0,400.5)"><line stroke="#000" x2="-6"/><text fill="#000" x="-9" dy="0.32em">0.66</text></g><g class="tick" opacity="1" transform="translate(0,356.0555555555555)"><line stroke="#000" x2="-6"/><text fill="#000" x="-9" dy="0.32em">0.68</text></g><g class="tick" opacity="1" transform="translate(0,311.61111111111126)"><line stroke="#000" x2="-6"/><text fill="#000" x="-9" dy="0.32em">0.70</text></g><g class="tick" opacity="1" transform="translate(0,267.16666666666674)"><line stroke="#000" x2="-6"/><text fill="#000" x="-9" dy="0.32em">0.72</text></g><g class="tick" opacity="1" transform="translate(0,222.72222222222226)"><line stroke="#000" x2="-6"/><text fill="#000" x="-9" dy="0.32em">0.74</text></g><g class="tick" opacity="1" transform="translate(0,178.27777777777777)"><line stroke="#000" x2="-6"/><text fill="#000" x="-9" dy="0.32em">0.76</text></g><g class="tick" opacity="1" transform="translate(0,133.83333333333326)"><line stroke="#000" x2="-6"/><text fill="#000" x="-9" dy="0.32em">0.78</text></g><g class="tick" opacity="1" transform="translate(0,89.38888888888874)"><line stroke="#000" x2="-6"/><text fill="#000" x="-9" dy="0.32em">0.80</text></g><g class="tick" opacity="1" transform="translate(0,44.944444444444514)"><line stroke="#000" x2="-6"/><text fill="#000" x="-9" dy="0.32em">0.82</text></g><g class="tick" opacity="1" transform="translate(0,0.5)"><line stroke="#000" x2="-6"/><text fill="#000" x="-9" dy="0.32em">0.84</text></g></g><text class="x label" text-anchor="middle" style="font: 12px sans-serif;" transform="translate(500,545.3833312988281)">Size</text><text class="y label" text-anchor="middle" style="font: 12px sans-serif;" transform="translate(-50,200)rotate(-90)">pielou_evenness</text><g class="outlier" transform="translate(90.16393442622952,0)"/><line class="center" x1="90.16393442622952" y1="134.4820077777777" x2="90.16393442622952" y2="134.4820077777777" stroke-dasharray="2,2" stroke-width="1" stroke="black"/><line class="center" x1="254.09836065573768" y1="233.33156755555555" x2="254.09836065573768" y2="170.31467488888885" stroke-dasharray="2,2" stroke-width="1" stroke="black"/><line class="center" x1="418.03278688524586" y1="284.4600144444445" x2="418.03278688524586" y2="51.8936788888887" stroke-dasharray="2,2" stroke-width="1" stroke="black"/><line class="center" x1="581.967213114754" y1="180.98115511111098" x2="581.967213114754" y2="133.6461399999999" stroke-dasharray="2,2" stroke-width="1" stroke="black"/><line class="center" x1="745.9016393442622" y1="386.26074711111113" x2="745.9016393442622" y2="58.20226555555564" stroke-dasharray="2,2" stroke-width="1" stroke="black"/><line class="center" x1="909.8360655737704" y1="316.50018266666666" x2="909.8360655737704" y2="23.943870888888796" stroke-dasharray="2,2" stroke-width="1" stroke="black"/><g class="outlier" transform="translate(254.09836065573768,0)"/><g class="outlier" transform="translate(418.03278688524586,0)"><circle r="4" stroke-width="1" stroke="black" stroke-opacity="0.3" fill="black" fill-opacity="0.33" cx="0" cy="17.506752000000006"/></g><g class="outlier" transform="translate(581.967213114754,0)"/><g class="outlier" transform="translate(745.9016393442622,0)"/><g class="outlier" transform="translate(909.8360655737704,0)"/><rect class="box" x="16.39344262295083" y="134.4820077777777" width="147.54098360655738" height="0" fill="white" stroke-width="1" stroke="black"/><rect class="box" x="180.327868852459" y="181.7887537777778" width="147.54098360655738" height="31.508446333333353" fill="white" stroke-width="1" stroke="black"/><rect class="box" x="344.2622950819672" y="161.71245083333346" width="147.54098360655738" height="73.81964649999989" fill="white" stroke-width="1" stroke="black"/><rect class="box" x="508.19672131147536" y="145.47989377777776" width="147.54098360655738" height="23.667507555555403" fill="white" stroke-width="1" stroke="black"/><rect class="box" x="672.1311475409835" y="146.80726144444458" width="147.54098360655738" height="187.6604828888888" fill="white" stroke-width="1" stroke="black"/><rect class="box" x="836.0655737704917" y="81.73170955555548" width="147.54098360655738" height="135.60165866666674" fill="white" stroke-width="1" stroke="black"/><line class="median" x1="16.39344262295083" y1="134.4820077777777" x2="163.9344262295082" y2="134.4820077777777" stroke-width="1" stroke="black"/><line class="median" x1="180.327868852459" y1="193.26283266666678" x2="327.86885245901635" y2="193.26283266666678" stroke-width="1" stroke="black"/><line class="median" x1="344.2622950819672" y1="191.31570222222223" x2="491.80327868852453" y2="191.31570222222223" stroke-width="1" stroke="black"/><line class="median" x1="508.19672131147536" y1="157.3136475555553" x2="655.7377049180327" y2="157.3136475555553" stroke-width="1" stroke="black"/><line class="median" x1="672.1311475409835" y1="213.95852888888882" x2="819.6721311475409" y2="213.95852888888882" stroke-width="1" stroke="black"/><line class="median" x1="836.0655737704917" y1="152.0341984444445" x2="983.6065573770491" y2="152.0341984444445" stroke-width="1" stroke="black"/><g class="whisker" transform="translate(53.27868852459017,0)"><line class="median" x1="0" y1="134.4820077777777" x2="73.77049180327869" y2="134.4820077777777" stroke-width="1" stroke="black"/><line class="median" x1="0" y1="134.4820077777777" x2="73.77049180327869" y2="134.4820077777777" stroke-width="1" stroke="black"/></g><g class="whisker" transform="translate(217.21311475409834,0)"><line class="median" x1="0" y1="233.33156755555555" x2="73.77049180327869" y2="233.33156755555555" stroke-width="1" stroke="black"/><line class="median" x1="0" y1="170.31467488888885" x2="73.77049180327869" y2="170.31467488888885" stroke-width="1" stroke="black"/></g><g class="whisker" transform="translate(381.1475409836065,0)"><line class="median" x1="0" y1="284.4600144444445" x2="73.77049180327869" y2="284.4600144444445" stroke-width="1" stroke="black"/><line class="median" x1="0" y1="51.8936788888887" x2="73.77049180327869" y2="51.8936788888887" stroke-width="1" stroke="black"/></g><g class="whisker" transform="translate(545.0819672131147,0)"><line class="median" x1="0" y1="180.98115511111098" x2="73.77049180327869" y2="180.98115511111098" stroke-width="1" stroke="black"/><line class="median" x1="0" y1="133.6461399999999" x2="73.77049180327869" y2="133.6461399999999" stroke-width="1" stroke="black"/></g><g class="whisker" transform="translate(709.0163934426229,0)"><line class="median" x1="0" y1="386.26074711111113" x2="73.77049180327869" y2="386.26074711111113" stroke-width="1" stroke="black"/><line class="median" x1="0" y1="58.20226555555564" x2="73.77049180327869" y2="58.20226555555564" stroke-width="1" stroke="black"/></g><g class="whisker" transform="translate(872.950819672131,0)"><line class="median" x1="0" y1="316.50018266666666" x2="73.77049180327869" y2="316.50018266666666" stroke-width="1" stroke="black"/><line class="median" x1="0" y1="23.943870888888796" x2="73.77049180327869" y2="23.943870888888796" stroke-width="1" stroke="black"/></g></g></svg>